<svg width="113" height="113" viewBox="0 0 113 113" fill="none" xmlns="http://www.w3.org/2000/svg">
<path d="M102.314 26.0297C101.944 24.0586 100.429 20.7507 94.4277 20.7507H93.0678C93.0143 20.257 92.9841 19.7433 92.8699 19.3028C92.0392 16.0952 89.5957 14.2563 86.1652 14.2563H25.6812C22.2506 14.2563 19.8072 16.0953 18.9765 19.3028C18.8619 19.7451 18.8313 20.2609 18.7778 20.757C12.7944 20.8733 11.2208 24.3152 10.8302 26.3921C8.79058 37.2814 30.1146 62.1485 47.7104 69.8465V82.299H39.9425C37.5517 82.299 35.6137 84.237 35.6137 86.6278V98.7246H76.2328V86.6278C76.2328 84.237 74.2948 82.299 71.9039 82.299H64.1361V69.2947C81.0357 61.2381 104.36 36.9515 102.314 26.0297ZM98.0592 26.8276C99.0155 31.9325 90.0771 44.0501 79.0418 53.8325C86.07 44.374 91.7167 33.0842 92.9197 25.0796H94.4279C97.7315 25.0796 97.9704 26.3488 98.0592 26.8276ZM15.0851 27.189C15.2039 26.5621 15.4917 25.1148 18.9257 25.0725C20.1935 33.5235 26.4076 45.6647 33.9795 55.4149C22.9911 45.6307 14.0361 32.7943 15.0851 27.189ZM71.9039 88.7923V94.3958H39.9424V88.7923C39.9424 87.5969 40.9115 86.6278 42.1069 86.6278H52.0393V66.1935L50.9254 65.5742C37.3912 58.0599 20.9042 29.1242 23.168 20.3881C23.4554 19.2752 23.9754 18.5851 25.6812 18.5851H86.1652C87.871 18.5851 88.3909 19.2752 88.6805 20.3881C90.9422 29.1252 74.4552 58.0599 60.921 65.5741L59.8071 66.1934V86.6278H69.7395C70.935 86.6278 71.9039 87.5969 71.9039 88.7923Z" fill="#7017E2"/>
<path d="M65.0659 88.4436H45.5859C44.3905 88.4436 43.4214 89.4126 43.4214 90.6081C43.4214 91.8034 44.3904 92.7726 45.5859 92.7726H65.0659C66.2613 92.7726 67.2304 91.8035 67.2304 90.6081C67.2304 89.4126 66.2614 88.4436 65.0659 88.4436ZM62.139 50.3734C63.2634 51.8647 64.2999 53.4776 65.2296 55.2037C66.9539 53.9291 68.6177 52.4819 70.1924 50.8673C69.0689 49.1847 67.8512 47.6241 66.5584 46.192C65.1659 47.7473 63.683 49.1432 62.139 50.3734ZM84.4042 22.0617L78.1057 22.5209C76.8439 31.4495 73.2126 39.0468 68.4268 44.6315C69.7433 46.0541 70.9865 47.6063 72.1373 49.2816C78.3363 42.6552 83.0509 33.2739 84.4656 22.1002C84.4452 22.0866 84.4245 22.0753 84.4042 22.0617Z" fill="#541F97"/>
</svg>
