<svg width="64" height="64" viewBox="0 0 64 64" fill="none" xmlns="http://www.w3.org/2000/svg">
<path d="M50.64 18.72C50.785 19.0959 51.0402 19.4192 51.3721 19.6476C51.704 19.876 52.0971 19.9988 52.5 20C52.7466 19.9981 52.9907 19.9507 53.22 19.86C53.7124 19.6678 54.1086 19.2886 54.3223 18.8052C54.5359 18.3217 54.5494 17.7734 54.36 17.28C53.4347 14.9103 52.1385 12.7027 50.52 10.74C50.1724 10.3683 49.6962 10.1431 49.1884 10.1102C48.6806 10.0774 48.1793 10.2393 47.7867 10.5631C47.3941 10.8868 47.1397 11.3481 47.0753 11.8529C47.0109 12.3576 47.1413 12.868 47.44 13.28C48.7879 14.9125 49.868 16.7487 50.64 18.72ZM44 10C44.5304 10 45.0391 9.78928 45.4142 9.41421C45.7893 9.03914 46 8.53043 46 8C45.9912 7.73108 45.9282 7.46672 45.8147 7.22272C45.7013 6.97873 45.5399 6.76012 45.34 6.58C45.1696 6.39508 44.9623 6.24792 44.7315 6.14802C44.5007 6.04813 44.2515 5.9977 44 6C43.4696 6 42.9609 6.21071 42.5858 6.58579C42.2107 6.96086 42 7.46957 42 8C42.0078 8.28862 42.0779 8.57214 42.2057 8.83107C42.3334 9.09 42.5157 9.31821 42.74 9.5C43.089 9.80826 43.5346 9.98509 44 10ZM18 26C18 28.7689 18.8211 31.4757 20.3594 33.778C21.8978 36.0803 24.0843 37.8747 26.6424 38.9343C29.2006 39.9939 32.0155 40.2712 34.7313 39.731C37.447 39.1908 39.9416 37.8574 41.8995 35.8995C43.8574 33.9416 45.1908 31.447 45.731 28.7313C46.2712 26.0155 45.9939 23.2006 44.9343 20.6424C43.8747 18.0843 42.0803 15.8978 39.778 14.3594C37.4757 12.8211 34.7689 12 32 12C28.287 12 24.726 13.475 22.1005 16.1005C19.475 18.726 18 22.287 18 26ZM42 26C42 27.9778 41.4135 29.9112 40.3147 31.5557C39.2159 33.2002 37.6541 34.4819 35.8268 35.2388C33.9996 35.9957 31.9889 36.1937 30.0491 35.8079C28.1093 35.422 26.3275 34.4696 24.9289 33.0711C23.5304 31.6725 22.578 29.8907 22.1921 27.9509C21.8063 26.0111 22.0043 24.0004 22.7612 22.1732C23.5181 20.3459 24.7998 18.7841 26.4443 17.6853C28.0888 16.5865 30.0222 16 32 16C34.6522 16 37.1957 17.0536 39.0711 18.9289C40.9464 20.8043 42 23.3478 42 26Z" fill="#FFF1FE"/>
<path d="M61.4199 52.58L50.3199 41.48C53.9912 37.1581 56.0046 31.6707 55.9999 26C55.9999 25.4696 55.7892 24.9609 55.4141 24.5858C55.0391 24.2107 54.5303 24 53.9999 24C53.4695 24 52.9608 24.2107 52.5857 24.5858C52.2106 24.9609 51.9999 25.4696 51.9999 26C51.9974 29.252 51.2019 32.4543 49.6824 35.3294C48.163 38.2046 45.9653 40.6659 43.2799 42.5L41.2799 43.7C38.4222 45.2064 35.2404 45.9936 32.0099 45.9936C28.7795 45.9936 25.5977 45.2064 22.7399 43.7L20.7399 42.5C16.8441 39.816 14.0258 35.8379 12.7858 31.2724C11.5458 26.7069 11.9643 21.8497 13.9671 17.5636C15.9698 13.2776 19.427 9.84021 23.7245 7.86222C28.0221 5.88423 32.8817 5.4937 37.4399 6.76C37.6985 6.85393 37.9737 6.89349 38.2483 6.87621C38.5229 6.85893 38.791 6.78517 39.0358 6.65955C39.2806 6.53394 39.4968 6.35916 39.671 6.14616C39.8452 5.93316 39.9735 5.68652 40.048 5.42165C40.1225 5.15679 40.1415 4.8794 40.1039 4.60684C40.0663 4.33428 39.9729 4.07241 39.8295 3.83761C39.686 3.6028 39.4957 3.40012 39.2704 3.24223C39.0451 3.08434 38.7896 2.97465 38.5199 2.92C33.5816 1.54263 28.3321 1.78279 23.5402 3.60529C18.7483 5.4278 14.666 8.73688 11.8912 13.0478C9.11636 17.3587 7.79491 22.4449 8.12039 27.5613C8.44588 32.6777 10.4012 37.5555 13.6999 41.48L2.57991 52.58C2.29785 52.8597 2.10549 53.2171 2.02735 53.6066C1.94921 53.9961 1.98884 54.4001 2.14117 54.767C2.2935 55.1339 2.55165 55.4471 2.88269 55.6667C3.21373 55.8863 3.60266 56.0023 3.99991 56H10.5599L12.0999 60.64C12.2071 60.9648 12.3957 61.2567 12.6478 61.4878C12.8999 61.7189 13.2071 61.8815 13.5399 61.96L13.9999 62C14.2631 62.0015 14.5241 61.9511 14.7677 61.8515C15.0114 61.752 15.233 61.6054 15.4199 61.42L27.2999 49.54C30.4021 50.1644 33.5977 50.1644 36.6999 49.54L48.5799 61.42C48.7668 61.6054 48.9884 61.752 49.2321 61.8515C49.4758 61.9511 49.7367 62.0015 49.9999 62H50.4599C50.7928 61.9215 51.0999 61.7589 51.352 61.5278C51.6041 61.2967 51.7928 61.0048 51.8999 60.68L53.4399 56H59.9999C60.3972 56.0023 60.7861 55.8863 61.1171 55.6667C61.4482 55.4471 61.7063 55.1339 61.8587 54.767C62.011 54.4001 62.0506 53.9961 61.9725 53.6066C61.8943 53.2171 61.702 52.8597 61.4199 52.58ZM22.7799 48.4L14.7799 56.4L13.7999 53.48C13.6922 53.0762 13.4606 52.7162 13.1377 52.4508C12.8149 52.1853 12.417 52.0277 11.9999 52H8.81991L16.2999 44.52L18.5199 45.84C19.2542 46.3351 20.0154 46.7891 20.7999 47.2L22.7799 48.4ZM51.9999 52C51.5806 51.9989 51.1716 52.1296 50.8307 52.3737C50.4897 52.6177 50.2341 52.9628 50.0999 53.36L49.1199 56.28L41.1199 48.28L43.1199 47.1C43.9044 46.6891 44.6656 46.2351 45.3999 45.74L47.6199 44.42L55.1799 52H51.9999Z" fill="#FFF1FE"/>
</svg>
