<svg width="62" height="70" viewBox="0 0 62 70" fill="none" xmlns="http://www.w3.org/2000/svg">
<path d="M0 49.3716V56.2459C0 56.9482 0.569108 57.5186 1.2727 57.5186H18.8636C19.567 57.5186 20.1364 56.9479 20.1364 56.2459V49.3005L23.7569 51.6771V62.2108C23.7569 62.913 24.3262 63.4832 25.0296 63.4832H31.5001C31.8405 63.4832 32.1638 63.3479 32.4037 63.108C32.6437 62.8683 32.7755 62.5426 32.7728 62.2033L32.6722 47.3431C32.6698 46.9269 32.4647 46.5389 32.1206 46.3029L25.11 41.4853L25.9414 40.3431V40.68C25.9414 41.3839 26.51 41.9527 27.2141 41.9527H41.3055C42.0101 41.9527 42.5782 41.3836 42.5782 40.68V34.4121C42.5782 33.7093 42.0101 33.1394 41.3055 33.1394H33.8842V27.8409C33.8842 27.427 33.6852 27.0406 33.3459 26.8012L25.763 21.443C25.5478 21.2915 25.2919 21.21 25.0285 21.21H8.5518C7.84767 21.21 7.27909 21.7804 7.27909 22.4827V36.9389C7.27909 37.6385 7.84394 38.2065 8.54381 38.2113L10.886 38.2251C10.7742 38.4201 10.714 38.6451 10.7164 38.8715L10.8045 48.1H1.2727C0.570439 48.0986 0 48.6691 0 49.3716ZM16.2099 29.4148H17.1121L16.2248 30.6701L16.2099 29.4148ZM2.54541 50.644H12.0895C12.4296 50.644 12.7539 50.5088 12.9944 50.2675C13.2336 50.0265 13.3662 49.6994 13.3622 49.3604L13.2658 39.2568L20.6107 28.8781C20.8852 28.4899 20.9196 27.9807 20.7007 27.558C20.4831 27.1357 20.0463 26.8696 19.5702 26.8696H14.9217C14.5806 26.8696 14.2559 27.0057 14.0168 27.248C13.7776 27.4899 13.6453 27.8166 13.649 28.1578L13.7137 33.741L12.2415 35.6875L9.82583 35.6739V23.7554H24.6277L31.3411 28.5002V34.4121C31.3411 35.1144 31.9105 35.6848 32.6138 35.6848H40.0352V39.4073H28.4879V36.4342C28.4879 35.8824 28.1337 35.3945 27.6093 35.2235C27.0916 35.0547 26.5124 35.2393 26.1867 35.6848L22.2847 41.043C22.0834 41.3202 22.0008 41.6696 22.0591 42.0062C22.1161 42.3452 22.3089 42.6448 22.5923 42.8414L30.1334 48.0257L30.2197 60.9405H26.3033V50.9913C26.3033 50.5639 26.0871 50.1636 25.7297 49.9274L19.5632 45.8837C19.1723 45.6291 18.6732 45.6081 18.2599 45.8291C17.8485 46.0518 17.5931 46.4816 17.5931 46.949V54.978H2.54541V50.644Z" fill="#616161"/>
<path d="M27.0312 17.6043C27.0312 21.8307 30.4699 25.2699 34.6973 25.2699C38.9231 25.2699 42.3623 21.8307 42.3623 17.6043C42.3623 13.3761 38.9231 9.9375 34.6973 9.9375C30.4699 9.9375 27.0312 13.3761 27.0312 17.6043ZM29.5767 17.6043C29.5767 14.7798 31.8736 12.4832 34.6973 12.4832C37.5189 12.4832 39.8171 14.7801 39.8171 17.6043C39.8171 20.4283 37.5189 22.7245 34.6973 22.7245C31.8736 22.7247 29.5767 20.427 29.5767 17.6043Z" fill="#616161"/>
<path d="M17.2617 60.4322V68.0908C17.2617 69.1462 18.1168 70 19.1706 70H59.2436C60.2974 70 61.1525 69.1462 61.1525 68.0908V1.90892C61.1525 0.853795 60.2974 0 59.2436 0H19.2676C18.2135 0 17.3587 0.853795 17.3587 1.90892V18.5273H21.1768V3.81811H57.3344V66.1819H21.0798V60.4322H17.2617Z" fill="#616161"/>
</svg>
