<svg width="403" height="360" viewBox="0 0 403 360" fill="none" xmlns="http://www.w3.org/2000/svg">
<g filter="url(#filter0_f_21_21)">
<rect x="201.016" y="4" width="239.025" height="239.025" transform="rotate(45 201.016 4)" fill="url(#paint0_diamond_21_21)"/>
</g>
<g filter="url(#filter1_d_21_21)">
<rect x="200.936" y="38" width="188" height="188" transform="rotate(45 200.936 38)" fill="url(#paint1_linear_21_21)"/>
<rect x="200.936" y="33.0502" width="195" height="195" transform="rotate(45 200.936 33.0502)" stroke="#1B131F" stroke-width="7"/>
</g>
<g filter="url(#filter2_d_21_21)">
<path d="M161.07 150.232L147.246 136.472C146.734 135.96 146.478 135.384 146.478 134.744C146.478 134.104 146.734 133.528 147.246 133.016C147.715 132.547 148.27 132.312 148.91 132.312C149.55 132.312 150.126 132.547 150.638 133.016L164.526 146.84C164.995 147.352 165.23 147.928 165.23 148.568C165.23 149.165 164.995 149.72 164.526 150.232C164.014 150.744 163.438 151 162.798 151C162.158 151 161.582 150.744 161.07 150.232ZM142.254 151.64C138.542 151.64 135.129 151 132.014 149.72C128.899 148.44 126.19 146.648 123.886 144.344C121.625 142.04 119.854 139.331 118.574 136.216C117.337 133.101 116.718 129.688 116.718 125.976C116.718 122.307 117.337 118.915 118.574 115.8C119.854 112.685 121.625 109.976 123.886 107.672C126.19 105.368 128.899 103.576 132.014 102.296C135.129 101.016 138.542 100.376 142.254 100.376C145.923 100.376 149.315 101.016 152.43 102.296C155.545 103.576 158.254 105.368 160.558 107.672C162.862 109.976 164.633 112.685 165.87 115.8C167.15 118.915 167.79 122.307 167.79 125.976C167.79 129.688 167.15 133.101 165.87 136.216C164.633 139.331 162.862 142.04 160.558 144.344C158.254 146.648 155.545 148.44 152.43 149.72C149.315 151 145.923 151.64 142.254 151.64ZM142.254 146.904C145.198 146.904 147.929 146.392 150.446 145.368C152.963 144.301 155.139 142.829 156.974 140.952C158.851 139.032 160.302 136.813 161.326 134.296C162.35 131.736 162.862 128.963 162.862 125.976C162.862 123.032 162.35 120.301 161.326 117.784C160.302 115.224 158.851 113.005 156.974 111.128C155.139 109.208 152.963 107.736 150.446 106.712C147.929 105.645 145.198 105.112 142.254 105.112C139.267 105.112 136.515 105.645 133.998 106.712C131.481 107.736 129.283 109.208 127.406 111.128C125.571 113.005 124.142 115.224 123.118 117.784C122.094 120.301 121.582 123.032 121.582 125.976C121.582 128.963 122.094 131.736 123.118 134.296C124.142 136.813 125.571 139.032 127.406 140.952C129.283 142.829 131.481 144.301 133.998 145.368C136.515 146.392 139.267 146.904 142.254 146.904ZM197.992 152.024C194.109 152.024 190.653 151.277 187.624 149.784C184.637 148.291 182.29 146.221 180.584 143.576C178.92 140.931 178.088 137.901 178.088 134.488V103.512C178.088 102.787 178.322 102.189 178.792 101.72C179.261 101.251 179.858 101.016 180.584 101.016C181.309 101.016 181.906 101.251 182.376 101.72C182.845 102.189 183.08 102.787 183.08 103.512V134.488C183.08 137.005 183.698 139.224 184.936 141.144C186.216 143.064 187.986 144.579 190.248 145.688C192.509 146.755 195.09 147.288 197.992 147.288C200.85 147.288 203.389 146.755 205.608 145.688C207.826 144.579 209.554 143.064 210.792 141.144C212.072 139.224 212.712 137.005 212.712 134.488V103.512C212.712 102.787 212.946 102.189 213.416 101.72C213.885 101.251 214.482 101.016 215.208 101.016C215.976 101.016 216.573 101.251 217 101.72C217.469 102.189 217.704 102.787 217.704 103.512V134.488C217.704 137.901 216.85 140.931 215.144 143.576C213.48 146.221 211.154 148.291 208.168 149.784C205.224 151.277 201.832 152.024 197.992 152.024ZM233.021 151C232.296 151 231.698 150.765 231.229 150.296C230.76 149.827 230.525 149.229 230.525 148.504V103.512C230.525 102.787 230.76 102.189 231.229 101.72C231.698 101.251 232.296 101.016 233.021 101.016C233.746 101.016 234.344 101.251 234.813 101.72C235.282 102.189 235.517 102.787 235.517 103.512V148.504C235.517 149.229 235.282 149.827 234.813 150.296C234.344 150.765 233.746 151 233.021 151ZM247.57 151C246.844 151 246.247 150.765 245.778 150.296C245.351 149.827 245.116 149.293 245.074 148.696C245.031 148.056 245.202 147.48 245.586 146.968L278.674 105.496H247.826C247.058 105.496 246.46 105.304 246.034 104.92C245.607 104.536 245.394 104.003 245.394 103.32C245.394 102.68 245.628 102.147 246.098 101.72C246.567 101.251 247.164 101.016 247.89 101.016H282.578C283.346 101.016 283.943 101.251 284.37 101.72C284.796 102.189 285.031 102.744 285.074 103.384C285.159 103.981 285.01 104.493 284.626 104.92L251.41 146.52H282.578C283.26 146.52 283.836 146.733 284.306 147.16C284.818 147.544 285.074 148.077 285.074 148.76C285.074 149.4 284.818 149.933 284.306 150.36C283.836 150.787 283.26 151 282.578 151H247.57ZM80.6039 222.64C77.8732 222.64 75.3345 222.256 72.9879 221.488C70.6839 220.677 68.6785 219.547 66.9719 218.096C65.2652 216.645 63.9639 214.96 63.0679 213.04C62.7265 212.357 62.7052 211.739 63.0039 211.184C63.3452 210.587 63.8999 210.181 64.6679 209.968C65.2652 209.797 65.8412 209.861 66.3959 210.16C66.9932 210.459 67.4412 210.907 67.7399 211.504C68.3799 212.741 69.3185 213.851 70.5559 214.832C71.7932 215.813 73.2652 216.581 74.9719 217.136C76.6785 217.648 78.5559 217.904 80.6039 217.904C82.8652 217.904 84.8705 217.541 86.6199 216.816C88.3692 216.048 89.7345 214.96 90.7159 213.552C91.7399 212.101 92.2519 210.352 92.2519 208.304C92.2519 205.701 91.2919 203.461 89.3719 201.584C87.4519 199.707 84.4439 198.512 80.3479 198C75.3559 197.403 71.4519 195.867 68.6359 193.392C65.8199 190.875 64.4119 187.803 64.4119 184.176C64.4119 181.573 65.0945 179.312 66.4599 177.392C67.8679 175.472 69.7879 174 72.2199 172.976C74.6519 171.909 77.4465 171.376 80.6039 171.376C82.9505 171.376 85.0839 171.76 87.0039 172.528C88.9239 173.253 90.5879 174.235 91.9959 175.472C93.4465 176.667 94.6199 177.989 95.5159 179.44C95.9425 180.123 96.0705 180.784 95.8999 181.424C95.7719 182.064 95.4092 182.555 94.8119 182.896C94.1719 183.195 93.5105 183.237 92.8279 183.024C92.1879 182.811 91.6972 182.405 91.3559 181.808C90.7159 180.827 89.9052 179.909 88.9239 179.056C87.9852 178.16 86.8332 177.456 85.4679 176.944C84.1025 176.432 82.4599 176.155 80.5399 176.112C77.1692 176.112 74.4599 176.837 72.4119 178.288C70.3639 179.696 69.3399 181.765 69.3399 184.496C69.3399 185.947 69.7239 187.291 70.4919 188.528C71.2599 189.723 72.5185 190.768 74.2679 191.664C76.0599 192.517 78.4492 193.157 81.4359 193.584C86.7692 194.352 90.7159 195.995 93.2759 198.512C95.8785 200.987 97.1799 204.229 97.1799 208.24C97.1799 210.544 96.7532 212.592 95.8999 214.384C95.0892 216.176 93.9159 217.691 92.3799 218.928C90.8865 220.123 89.1159 221.04 87.0679 221.68C85.0625 222.32 82.9079 222.64 80.6039 222.64ZM110.115 222C109.39 222 108.792 221.765 108.323 221.296C107.854 220.827 107.619 220.229 107.619 219.504V174.512C107.619 173.787 107.854 173.189 108.323 172.72C108.792 172.251 109.39 172.016 110.115 172.016H140.131C140.814 172.016 141.39 172.251 141.859 172.72C142.371 173.147 142.627 173.723 142.627 174.448C142.627 175.088 142.371 175.643 141.859 176.112C141.39 176.581 140.814 176.816 140.131 176.816H112.611V194.48H132.643C133.368 194.48 133.966 194.715 134.435 195.184C134.904 195.653 135.139 196.229 135.139 196.912C135.139 197.595 134.904 198.171 134.435 198.64C133.966 199.109 133.368 199.344 132.643 199.344H112.611V217.2H140.131C140.814 217.2 141.39 217.435 141.859 217.904C142.371 218.373 142.627 218.928 142.627 219.568C142.627 220.293 142.371 220.891 141.859 221.36C141.39 221.787 140.814 222 140.131 222H110.115ZM154.427 222C153.702 222 153.105 221.765 152.635 221.296C152.166 220.827 151.931 220.229 151.931 219.504V174.512C151.931 173.787 152.166 173.189 152.635 172.72C153.105 172.251 153.702 172.016 154.427 172.016H166.395C169.51 172.016 172.283 172.677 174.715 174C177.147 175.28 179.046 177.093 180.411 179.44C181.819 181.744 182.523 184.411 182.523 187.44C182.523 190.341 181.819 192.923 180.411 195.184C179.046 197.445 177.147 199.216 174.715 200.496C172.283 201.776 169.51 202.416 166.395 202.416H156.923V219.504C156.923 220.229 156.689 220.827 156.219 221.296C155.75 221.765 155.153 222 154.427 222ZM181.179 222C180.625 222 180.177 221.893 179.835 221.68C179.537 221.467 179.259 221.147 179.003 220.72L166.715 201.136L171.707 199.856L183.163 218.16C183.803 219.184 183.91 220.08 183.483 220.848C183.099 221.616 182.331 222 181.179 222ZM156.923 197.616H166.395C168.571 197.616 170.491 197.189 172.155 196.336C173.862 195.44 175.206 194.224 176.187 192.688C177.169 191.152 177.659 189.403 177.659 187.44C177.659 185.349 177.169 183.515 176.187 181.936C175.206 180.315 173.862 179.056 172.155 178.16C170.491 177.264 168.571 176.816 166.395 176.816H156.923V197.616ZM208.07 222C207.003 222 206.235 221.467 205.766 220.4L186.758 175.92C186.289 174.725 186.246 173.787 186.63 173.104C187.057 172.379 187.782 172.016 188.806 172.016C189.873 172.016 190.641 172.549 191.11 173.616L208.774 215.856H207.366L224.966 173.744C225.222 173.104 225.542 172.656 225.926 172.4C226.31 172.144 226.822 172.016 227.462 172.016C228.443 172.016 229.105 172.4 229.446 173.168C229.787 173.893 229.766 174.725 229.382 175.664L210.31 220.4C210.054 220.997 209.734 221.424 209.35 221.68C208.966 221.893 208.539 222 208.07 222ZM239.802 222C239.077 222 238.48 221.765 238.01 221.296C237.541 220.827 237.306 220.229 237.306 219.504V174.512C237.306 173.787 237.541 173.189 238.01 172.72C238.48 172.251 239.077 172.016 239.802 172.016C240.528 172.016 241.125 172.251 241.594 172.72C242.064 173.189 242.298 173.787 242.298 174.512V219.504C242.298 220.229 242.064 220.827 241.594 221.296C241.125 221.765 240.528 222 239.802 222ZM277.583 222.64C274.127 222.64 270.884 221.979 267.855 220.656C264.868 219.333 262.223 217.499 259.919 215.152C257.658 212.763 255.887 210.032 254.607 206.96C253.327 203.845 252.687 200.517 252.687 196.976C252.687 193.477 253.306 190.192 254.543 187.12C255.823 184.005 257.594 181.275 259.855 178.928C262.159 176.581 264.804 174.747 267.791 173.424C270.82 172.059 274.084 171.376 277.583 171.376C280.655 171.376 283.45 171.824 285.967 172.72C288.484 173.616 290.916 175.045 293.263 177.008C293.647 177.307 293.86 177.669 293.903 178.096C293.988 178.48 293.946 178.864 293.775 179.248C293.604 179.589 293.348 179.845 293.007 180.016C292.922 180.357 292.708 180.613 292.367 180.784C292.026 180.955 291.62 181.019 291.151 180.976C290.724 180.933 290.298 180.741 289.871 180.4C288.207 178.949 286.394 177.883 284.431 177.2C282.468 176.475 280.186 176.112 277.583 176.112C274.81 176.112 272.207 176.667 269.775 177.776C267.386 178.885 265.274 180.4 263.439 182.32C261.604 184.24 260.154 186.459 259.087 188.976C258.063 191.493 257.551 194.16 257.551 196.976C257.551 199.877 258.063 202.587 259.087 205.104C260.154 207.621 261.604 209.84 263.439 211.76C265.274 213.68 267.386 215.195 269.775 216.304C272.207 217.371 274.81 217.904 277.583 217.904C279.93 217.904 282.148 217.52 284.239 216.752C286.33 215.984 288.314 214.875 290.191 213.424C290.703 212.997 291.236 212.827 291.791 212.912C292.388 212.997 292.9 213.253 293.327 213.68C293.754 214.107 293.967 214.661 293.967 215.344C293.967 215.685 293.903 216.005 293.775 216.304C293.69 216.56 293.519 216.837 293.263 217.136C291.087 219.141 288.655 220.571 285.967 221.424C283.279 222.235 280.484 222.64 277.583 222.64ZM306.74 222C306.015 222 305.417 221.765 304.948 221.296C304.479 220.827 304.244 220.229 304.244 219.504V174.512C304.244 173.787 304.479 173.189 304.948 172.72C305.417 172.251 306.015 172.016 306.74 172.016H336.756C337.439 172.016 338.015 172.251 338.484 172.72C338.996 173.147 339.252 173.723 339.252 174.448C339.252 175.088 338.996 175.643 338.484 176.112C338.015 176.581 337.439 176.816 336.756 176.816H309.236V194.48H329.268C329.993 194.48 330.591 194.715 331.06 195.184C331.529 195.653 331.764 196.229 331.764 196.912C331.764 197.595 331.529 198.171 331.06 198.64C330.591 199.109 329.993 199.344 329.268 199.344H309.236V217.2H336.756C337.439 217.2 338.015 217.435 338.484 217.904C338.996 218.373 339.252 218.928 339.252 219.568C339.252 220.293 338.996 220.891 338.484 221.36C338.015 221.787 337.439 222 336.756 222H306.74Z" fill="white"/>
</g>
<defs>
<filter id="filter0_f_21_21" x="-0.00012207" y="-28" width="402.032" height="402.032" filterUnits="userSpaceOnUse" color-interpolation-filters="sRGB">
<feFlood flood-opacity="0" result="BackgroundImageFix"/>
<feBlend mode="normal" in="SourceGraphic" in2="BackgroundImageFix" result="shape"/>
<feGaussianBlur stdDeviation="16" result="effect1_foregroundBlur_21_21"/>
</filter>
<filter id="filter1_d_21_21" x="54.1008" y="28.1005" width="293.671" height="300.671" filterUnits="userSpaceOnUse" color-interpolation-filters="sRGB">
<feFlood flood-opacity="0" result="BackgroundImageFix"/>
<feColorMatrix in="SourceAlpha" type="matrix" values="0 0 0 0 0 0 0 0 0 0 0 0 0 0 0 0 0 0 127 0" result="hardAlpha"/>
<feOffset dy="11"/>
<feGaussianBlur stdDeviation="2"/>
<feComposite in2="hardAlpha" operator="out"/>
<feColorMatrix type="matrix" values="0 0 0 0 0 0 0 0 0 0 0 0 0 0 0 0 0 0 0.25 0"/>
<feBlend mode="normal" in2="BackgroundImageFix" result="effect1_dropShadow_21_21"/>
<feBlend mode="normal" in="SourceGraphic" in2="effect1_dropShadow_21_21" result="shape"/>
</filter>
<filter id="filter2_d_21_21" x="58.5559" y="100.376" width="284.696" height="137.264" filterUnits="userSpaceOnUse" color-interpolation-filters="sRGB">
<feFlood flood-opacity="0" result="BackgroundImageFix"/>
<feColorMatrix in="SourceAlpha" type="matrix" values="0 0 0 0 0 0 0 0 0 0 0 0 0 0 0 0 0 0 127 0" result="hardAlpha"/>
<feOffset dy="11"/>
<feGaussianBlur stdDeviation="2"/>
<feComposite in2="hardAlpha" operator="out"/>
<feColorMatrix type="matrix" values="0 0 0 0 0 0 0 0 0 0 0 0 0 0 0 0 0 0 0.25 0"/>
<feBlend mode="normal" in2="BackgroundImageFix" result="effect1_dropShadow_21_21"/>
<feBlend mode="normal" in="SourceGraphic" in2="effect1_dropShadow_21_21" result="shape"/>
</filter>
<radialGradient id="paint0_diamond_21_21" cx="0" cy="0" r="1" gradientUnits="userSpaceOnUse" gradientTransform="translate(320.643 121.714) rotate(-88.6881) scale(117.803)">
<stop offset="0.09375" stop-color="#2C61EB"/>
<stop offset="1" stop-color="#EF39FF"/>
</radialGradient>
<linearGradient id="paint1_linear_21_21" x1="292.906" y1="223.217" x2="297.148" y2="37.9547" gradientUnits="userSpaceOnUse">
<stop stop-color="#2C61EB"/>
<stop offset="1" stop-color="#EF39FF"/>
</linearGradient>
</defs>
</svg>
