<?xml version="1.0" standalone="no"?>
  <!DOCTYPE svg PUBLIC "-//W3C//DTD SVG 1.1//EN" "http://www.w3.org/Graphics/SVG/1.1/DTD/svg11.dtd" >
  <svg>
  <metadata>
  Created by font-carrier
  </metadata>
  <defs>
  <font id="MADELikesSlab" horiz-adv-x="1638" vert-adv-y="1638" >
    <font-face
      
      font-family="MADE Likes Slab"
      
      font-weight="400"
      
      font-stretch="normal"
      
      units-per-em="1000"
      
      ascent="915"
      
      descent="-290"
      
    />
      <missing-glyph />

      

      
      <glyph glyph-name="uni21" unicode="&#x21;" d="M158 700L150 168L68 168L60 700L158 700M168 49Q168 25 151 7.50Q134-10 109-10Q84-10 67 7.50Q50 25 50 49Q50 74 67 91.50Q84 109 109 109Q134 109 151 91.50Q168 74 168 49Z"  horiz-adv-x="218" vert-adv-y="1000"  />

      
      <glyph glyph-name="uni22" unicode="&#x22;" d="M50 815L144 815L135 608L59 608L50 815M193 815L287 815L278 608L201 608L193 815Z"  horiz-adv-x="337" vert-adv-y="1000"  />

      
      <glyph glyph-name="uni23" unicode="&#x23;" d="M747 449L608 449L565 264L703 264L703 194L549 194L505 0L423 0L467 194L251 194L207 0L125 0L169 194L50 194L50 264L185 264L228 449L94 449L94 518L244 518L286 700L368 700L326 518L542 518L584 700L666 700L624 518L747 518L747 449M483 264L526 449L310 449L267 264L483 264Z"  horiz-adv-x="797" vert-adv-y="1000"  />

      
      <glyph glyph-name="uni24" unicode="&#x24;" d="M320 384Q462 362 523.50 314.50Q585 267 579 175Q568 5 356-10L356-115L274-115L274-11Q140-4 87 46Q34 96 63 190L135 176Q135 176 126 153Q113 89 205 66Q243 56 297 55Q493 49 500 176Q501 198 494.50 215Q488 232 466.50 252Q445 272 396.50 289.50Q348 307 274 320Q214 330 169 350.50Q124 371 100 396Q76 421 62.50 452Q49 483 50.50 514.50Q52 546 60 579Q95 700 274 707L274 812L356 812L356 706Q457 697 511.50 646.50Q566 596 540 511L464 524Q466 528 469 535Q472 542 471.50 560.50Q471 579 459.50 593.50Q448 608 411.50 621.50Q375 635 317 638Q264 641 226.50 631Q189 621 171.50 607.50Q154 594 144.50 571.50Q135 549 134 539Q133 529 133 514Q134 500 134.50 493Q135 486 145 467Q155 448 172.50 435.50Q190 423 228 408Q266 393 320 384Z"  horiz-adv-x="630" vert-adv-y="1000"  />

      
      <glyph glyph-name="uni25" unicode="&#x25;" d="M710 334Q790 334 838.50 286.50Q887 239 887 162Q887 85 838.50 37.50Q790-10 710-10Q631-10 582.50 37.50Q534 85 534 162Q534 241 581.50 287.50Q629 334 710 334M636.50 88Q636.50 88 650.75 73.50Q665 59 710 59Q755 59 783.50 88Q812 117 812 162Q812 207 784 235.50Q756 264 710 264Q665 264 636.50 235.50Q608 207 608 162Q608 117 636.50 88M226 710Q306 710 354.50 662.50Q403 615 403 538Q403 461 354.50 413.50Q306 366 226 366Q147 366 98.50 413.50Q50 461 50 538Q50 617 97.50 663.50Q145 710 226 710M152.50 464.50Q152.50 464.50 166.75 450.25Q181 436 226 436Q271 436 300 464.50Q329 493 329 538Q329 583 300.50 611.50Q272 640 226 640Q181 640 152.50 611.50Q124 583 124 538Q124 493 152.50 464.50M377 0L648 700L557 700L287 0L377 0Z"  horiz-adv-x="937" vert-adv-y="1000"  />

      
      <glyph glyph-name="uni27" unicode="&#x27;" d="M50 815L144 815L135 608L59 608L50 815Z"  horiz-adv-x="194" vert-adv-y="1000"  />

      
      <glyph glyph-name="uni28" unicode="&#x28;" d="M379-126L344-189Q212-106 131 36Q50 178 50 378Q50 461 80.50 544.50Q111 628 154 687Q197 746 240 793.50Q283 841 314 865L344 889L379 829Q369 822 353.50 809.50Q338 797 297 754Q256 711 225 662.50Q194 614 168.50 537.50Q143 461 143 380Q143 301 156 230Q169 159 190 109.50Q211 60 236 18.50Q261-23 286-49Q311-75 332-93Q353-111 366-118L379-126Z"  horiz-adv-x="429" vert-adv-y="1000"  />

      
      <glyph glyph-name="uni29" unicode="&#x29;" d="M85-189L50-126Q60-121 75.50-111Q91-101 132-59.50Q173-18 204 34Q235 86 260.50 178.50Q286 271 286 380Q286 461 261.50 536.50Q237 612 202.50 663Q168 714 133.50 753Q99 792 74 810L50 829L85 889Q97 880 117 864Q137 848 187.50 795Q238 742 276.50 686Q315 630 347 545.50Q379 461 379 378Q379 178 298 36Q217-106 85-189Z"  horiz-adv-x="429" vert-adv-y="1000"  />

      
      <glyph glyph-name="uni2a" unicode="&#x2a;" d="M379 703L284 648L379 593L345 533L249 588L249 478L180 478L180 588L85 533L50 593L145 648L50 703L85 763L180 708L180 818L249 818L249 708L345 763L379 703Z"  horiz-adv-x="429" vert-adv-y="1000"  />

      
      <glyph glyph-name="uni2b" unicode="&#x2b;" d="M338 285L338 215L229 215L229 106L159 106L159 215L50 215L50 285L159 285L159 394L229 394L229 285L338 285Z"  horiz-adv-x="388" vert-adv-y="1000"  />

      
      <glyph glyph-name="uni2c" unicode="&#x2c;" d="M168 49Q171 14 151.50-28.50Q132-71 98-102L59-75Q88-42 95-8Q75-3 62.50 13Q50 29 50 49Q50 74 67 91.50Q84 109 109 109Q133 109 149.50 92.50Q166 76 168 49Z"  horiz-adv-x="219" vert-adv-y="1000"  />

      
      <glyph glyph-name="uni2d" unicode="&#x2d;" d="M338 285L338 215L50 215L50 285L338 285Z"  horiz-adv-x="388" vert-adv-y="1000"  />

      
      <glyph glyph-name="uni2e" unicode="&#x2e;" d="M169 49Q169 25 151.50 7.50Q134-10 109-10Q85-10 67.50 7.50Q50 25 50 49Q50 74 67.50 91.50Q85 109 109 109Q134 109 151.50 91.50Q169 74 169 49Z"  horiz-adv-x="219" vert-adv-y="1000"  />

      
      <glyph glyph-name="uni30" unicode="&#x30;" d="M303 704Q426 704 501 605.50Q576 507 576 347Q576 188 501 89Q426-10 303-10Q181-10 105.50 89.50Q30 189 30 347Q30 512 104 608Q178 704 303 704M303 64Q387 64 441 143.50Q495 223 495 347Q495 473 442 551.50Q389 630 303 630Q218 630 164.50 551Q111 472 111 347Q111 222 164.50 143Q218 64 303 64Z"  horiz-adv-x="606" vert-adv-y="1000"  />

      
      <glyph glyph-name="uni31" unicode="&#x31;" d="M228 69L324 69L324 0L50 0L50 69L146 69L146 631L50 631L50 700L228 700L228 69Z"  horiz-adv-x="364" vert-adv-y="1000"  />

      
      <glyph glyph-name="uni32" unicode="&#x32;" d="M444 164L513 164L513 0L50 0L50 69Q50 120 61.50 156Q73 192 110.50 223.50Q148 255 173.50 270.50Q199 286 270 322Q299 337 314 345Q380 379 409 431Q438 483 430.50 528Q423 573 385 604.50Q347 636 291 635Q236 634 202.50 619.50Q169 605 160 585Q151 565 149.50 545Q148 525 154 512L159 498L81 484Q51 585 106 644.50Q161 704 294 704Q365 704 417 673.50Q469 643 489.50 594Q510 545 507.50 490Q505 435 466.50 379Q428 323 361 285Q336 271 301.50 252Q267 233 251 224Q235 215 212.50 201.50Q190 188 180.50 179.50Q171 171 159 158.50Q147 146 143.50 133.50Q140 121 137 105Q134 89 135 69L444 69L444 164Z"  horiz-adv-x="563" vert-adv-y="1000"  />

      
      <glyph glyph-name="uni33" unicode="&#x33;" d="M340 426Q457 417 507 358Q557 299 555 209Q552 115 487.50 52.50Q423-10 298-10Q195-10 141 24.50Q87 59 50 132L118 156Q143 105 188 83.50Q233 62 305 62Q375 62 425.50 103.50Q476 145 477 206Q479 281 442 313.50Q405 346 320 354Q299 356 268 356Q237 356 216 355L196 354L196 424L417 631L85 631L85 700L515 700L515 631L310 428Q322 428 340 426Z"  horiz-adv-x="586" vert-adv-y="1000"  />

      
      <glyph glyph-name="uni34" unicode="&#x34;" d="M531 209L435 209L435 69L531 69L531 0L257 0L257 69L353 69L353 209L20 209L20 278L353 700L435 700L435 278L531 278L531 209M121 278L353 278L353 575L121 278Z"  horiz-adv-x="581" vert-adv-y="1000"  />

      
      <glyph glyph-name="uni35" unicode="&#x35;" d="M325 451Q441 441 496 371Q551 301 548 209Q546 114 482.50 52Q419-10 294-10Q223-10 174.50 8Q126 26 100 55Q74 84 50 132L117 156Q142 105 185.50 83.50Q229 62 301 62Q370 62 420 103.50Q470 145 471 206Q475 357 306 379Q262 383 225 380Q188 377 164 372L140 366L107 404L122 700L509 700L509 631L201 631L193 440Q272 456 325 451Z"  horiz-adv-x="579" vert-adv-y="1000"  />

      
      <glyph glyph-name="uni36" unicode="&#x36;" d="M313 457Q416 457 480 394Q544 331 537 217Q532 116 466.50 53Q401-10 296-10Q248-10 204 5Q160 20 119.50 53Q79 86 54.50 148.50Q30 211 30 296Q30 371 45 438.50Q60 506 90.50 563.50Q121 621 174 658Q227 695 297 702Q408 714 473 657.50Q538 601 514 508L442 522Q460 576 409.50 611Q359 646 283 628Q245 619 215.50 595.50Q186 572 170 546.50Q154 521 142.50 485Q131 449 127 427Q123 405 119 375Q188 457 313 457M296 58Q366 58 412 103.50Q458 149 460 225Q463 303 419.50 345Q376 387 288 387Q209 387 159 343.50Q109 300 114 217Q119 141 173 99.50Q227 58 296 58Z"  horiz-adv-x="588" vert-adv-y="1000"  />

      
      <glyph glyph-name="uni37" unicode="&#x37;" d="M50 700L508 700L508 631L194 0L106 0L421 631L50 631L50 700Z"  horiz-adv-x="558" vert-adv-y="1000"  />

      
      <glyph glyph-name="uni38" unicode="&#x38;" d="M433 364Q486 339 515 294.50Q544 250 544 192Q544 102 476.50 46Q409-10 297-10Q186-10 118 46Q50 102 50 192Q50 315 160 365Q81 417 81 516Q81 603 139.50 653.50Q198 704 297 704Q394 704 453 652Q512 600 512 516Q512 416 433 364M396 604Q396 604 377 621Q358 638 297 638Q236 638 197.50 604Q159 570 159 516Q159 462 197.50 427.50Q236 393 297 393Q357 393 395.50 427.50Q434 462 434 516Q434 570 396 604M297 60Q369 60 415.50 97Q462 134 462 192Q462 250 416.50 286Q371 322 297 322Q223 322 177 286Q131 250 131 192Q131 134 177 97Q223 60 297 60Z"  horiz-adv-x="594" vert-adv-y="1000"  />

      
      <glyph glyph-name="uni39" unicode="&#x39;" d="M254 237Q153 237 89.50 306.50Q26 376 31 491Q35 587 101.50 645.50Q168 704 280 704Q328 704 370.50 688.50Q413 673 451.50 639Q490 605 512.50 542.50Q535 480 535 395Q537 17 297-8Q184-20 107.50 37.50Q31 95 54 186L126 172Q112 117 173.50 82.50Q235 48 312 66Q338 72 359.50 86.50Q381 101 394.50 115.50Q408 130 418.50 155.50Q429 181 434.50 196.50Q440 212 444 242Q448 272 448.50 282Q449 292 451 319Q389 237 254 237M280 636Q207 636 159.50 596.50Q112 557 110 483Q108 403 151 355Q194 307 280 307Q359 307 409 350.50Q459 394 453 477Q448 555 400 595.50Q352 636 280 636Z"  horiz-adv-x="556" vert-adv-y="1000"  />

      
      <glyph glyph-name="uni3a" unicode="&#x3a;" d="M168 49Q168 25 150.50 7.50Q133-10 109-10Q84-10 67 7.50Q50 25 50 49Q50 74 67 91.50Q84 109 109 109Q133 109 150.50 91.50Q168 74 168 49M168 387Q168 362 150.50 344.50Q133 327 109 327Q84 327 67 344.50Q50 362 50 387Q50 411 67 428.50Q84 446 109 446Q133 446 150.50 428.50Q168 411 168 387Z"  horiz-adv-x="218" vert-adv-y="1000"  />

      
      <glyph glyph-name="uni3b" unicode="&#x3b;" d="M168 49Q171 14 151.50-28.50Q132-71 98-102L60-75Q89-42 95-8Q75-3 62.50 13Q50 29 50 49Q50 74 67 91.50Q84 109 109 109Q133 109 149.50 92.50Q166 76 168 49M169 387Q169 362 151.50 344.50Q134 327 109 327Q85 327 67.50 344.50Q50 362 50 387Q50 411 67.50 428.50Q85 446 109 446Q134 446 151.50 428.50Q169 411 169 387Z"  horiz-adv-x="219" vert-adv-y="1000"  />

      
      <glyph glyph-name="uni3d" unicode="&#x3d;" d="M338 339L338 270L50 270L50 339L338 339M338 219L338 149L50 149L50 219L338 219Z"  horiz-adv-x="388" vert-adv-y="1000"  />

      
      <glyph glyph-name="uni3f" unicode="&#x3f;" d="M385 358Q326 320 302.50 295.50Q279 271 274 241Q269 211 275 168L198 168Q190 263 217.50 310Q245 357 338 416Q389 448 405 476Q421 504 421 534Q421 584 384.50 612.50Q348 641 257 641Q218 641 191 633.50Q164 626 151.50 613.50Q139 601 133.50 586.50Q128 572 130 557.50Q132 543 135.50 530.50Q139 518 143 510L147 503L73 482Q52 523 51.50 562.50Q51 602 70.50 636Q90 670 140 690.50Q190 711 264 711Q336 711 385.50 695Q435 679 459.50 651.50Q484 624 493.50 596Q503 568 503 535Q503 434 385 358M297 49Q297 74 280 91.50Q263 109 238 109Q213 109 196 91.50Q179 74 179 49Q179 25 196 7.50Q213-10 238-10Q263-10 280 7.50Q297 25 297 49Z"  horiz-adv-x="553" vert-adv-y="1000"  />

      
      <glyph glyph-name="uni40" unicode="&#x40;" d="M298 237Q285 318 335 366.50Q385 415 476 415Q537 415 577 407Q576 469 554.50 495.50Q533 522 461 522Q424 522 410 507Q396 492 400 476L405 461L336 451Q334 457 332 466.50Q330 476 331.50 501Q333 526 343.50 545Q354 564 385.50 579.50Q417 595 467 595Q559 595 609 551Q659 507 659 425L659 304Q659 189 730 187Q780 185 809.50 223.50Q839 262 839 370Q839 436 819.50 495.50Q800 555 759 605Q718 655 647.50 684Q577 713 484 713Q392 713 321 682.50Q250 652 209 601Q168 550 146.50 492Q125 434 123 370Q121 308 141 244.50Q161 181 199 125.50Q237 70 301 32Q365-6 443-14Q520-21 591.50-6.50Q663 8 696 26L729 44L751-8Q747-11 739-16.50Q731-22 702-34.50Q673-47 640.50-56.50Q608-66 554.50-71.50Q501-77 443-73Q288-63 176 44.50Q64 152 52 321Q46 408 73 491.50Q100 575 154 640.50Q208 706 294 746Q380 786 484 786Q586 786 669.50 751.50Q753 717 802.50 662Q852 607 880 545.50Q908 484 913 422Q917 367 909.50 314Q902 261 882 214Q862 167 822 140Q782 113 727 118Q632 127 594 215Q553 167 486 150Q419 133 363.50 156.50Q308 180 298 237M577 360Q542 369 481 364Q427 359 395 329.50Q363 300 371 255Q384 196 456 203.50Q528 211 577 265L577 360Z"  horiz-adv-x="965" vert-adv-y="1000"  />

      
      <glyph glyph-name="uni41" unicode="&#x41;" d="M758 69L841 69L841 0L584 0L584 69L671 69L609 214L280 214L219 69L307 69L307 0L50 0L50 69L132 69L370 631L274 631L274 700L490 700L758 69M310 283L580 283L445 601L310 283Z"  horiz-adv-x="891" vert-adv-y="1000"  />

      
      <glyph glyph-name="uni42" unicode="&#x42;" d="M574 375Q688 328 688 201Q688 104 619 52Q550 0 442 0L50 0L50 69L146 69L146 631L50 631L50 700L440 700Q480 700 514.50 691.50Q549 683 581 663Q613 643 631.50 604.50Q650 566 650 513Q650 430 574 375M428 631L228 631L228 401L421 401Q490 401 531 432.50Q572 464 572 513Q572 578 535 604.50Q498 631 428 631M439 69Q506 69 557 102.50Q608 136 608 201Q608 240 592 267Q576 294 548.50 307Q521 320 495.50 325Q470 330 441 330L228 330L228 69L439 69Z"  horiz-adv-x="718" vert-adv-y="1000"  />

      
      <glyph glyph-name="uni43" unicode="&#x43;" d="M399 64Q549 64 593 175L665 150Q606-10 399-10Q229-10 134.50 91Q40 192 40 347Q40 503 129.50 603.50Q219 704 386 704Q426 704 463.50 696.50Q501 689 539 672Q577 655 600 627Q623 599 632 557Q641 515 621 459L547 477Q554 505 556.50 526Q559 547 548.50 563Q538 579 527.50 590Q517 601 497.50 608.50Q478 616 464 620Q450 624 431.50 626Q413 628 404 628.50Q395 629 386 629Q264 629 193 549Q122 469 122 347Q122 226 198.50 145Q275 64 399 64Z"  horiz-adv-x="705" vert-adv-y="1000"  />

      
      <glyph glyph-name="uni44" unicode="&#x44;" d="M409 700Q592 700 685.50 603.50Q779 507 779 351Q779 197 685.50 98.50Q592 0 409 0L50 0L50 69L146 69L146 630L50 630L50 700L409 700M403 69Q544 69 620 144.50Q696 220 696 351Q696 476 616.50 553Q537 630 401 630L228 630L228 69L403 69Z"  horiz-adv-x="799" vert-adv-y="1000"  />

      
      <glyph glyph-name="uni45" unicode="&#x45;" d="M50 700L639 700L639 535L570 535L570 631L228 631L228 401L574 401L574 332L228 332L228 69L570 69L570 166L639 166L639 0L50 0L50 69L146 69L146 631L50 631L50 700Z"  horiz-adv-x="689" vert-adv-y="1000"  />

      
      <glyph glyph-name="uni46" unicode="&#x46;" d="M50 700L640 700L640 534L571 534L571 630L228 630L228 401L574 401L574 332L228 332L228 69L324 69L324 0L50 0L50 69L146 69L146 630L50 630L50 700Z"  horiz-adv-x="690" vert-adv-y="1000"  />

      
      <glyph glyph-name="uni47" unicode="&#x47;" d="M388 356L659 356L659 150Q633 81 566 35.50Q499-10 390-10Q219-10 124.50 91Q30 192 30 347Q30 503 119.50 603.50Q209 704 376 704Q416 704 454 696.50Q492 689 530 672Q568 655 590.50 627Q613 599 622 557Q631 515 611 459L538 477Q545 505 547.50 526Q550 547 539.50 563Q529 579 518.50 590Q508 601 488.50 608Q469 615 454.50 619.50Q440 624 421.50 626Q403 628 394 628.50Q385 629 376 629Q255 629 184 549Q113 469 113 347Q113 226 189.50 145Q266 64 390 64Q453 64 503.50 89Q554 114 577 161L577 287L388 287L388 356Z"  horiz-adv-x="709" vert-adv-y="1000"  />

      
      <glyph glyph-name="uni48" unicode="&#x48;" d="M818 631L722 631L722 69L818 69L818 0L544 0L544 69L640 69L640 332L229 332L229 69L325 69L325 0L50 0L50 69L147 69L147 631L50 631L50 700L325 700L325 631L229 631L229 401L640 401L640 631L544 631L544 700L818 700L818 631Z"  horiz-adv-x="868" vert-adv-y="1000"  />

      
      <glyph glyph-name="uni49" unicode="&#x49;" d="M325 630L228 630L228 69L325 69L325 0L50 0L50 69L147 69L147 630L50 630L50 700L325 700L325 630Z"  horiz-adv-x="375" vert-adv-y="1000"  />

      
      <glyph glyph-name="uni4a" unicode="&#x4a;" d="M128 700L509 700L509 255Q509 188 493 138Q477 88 453.50 60.50Q430 33 394.50 16.50Q359 0 328-5Q297-10 258-10Q200-10 157 5Q114 20 90.50 44.50Q67 69 52.50 98.50Q38 128 34.50 157.50Q31 187 31 211.50Q31 236 34 251L36 266L110 266Q109 262 107.50 255Q106 248 104.50 227.50Q103 207 105 188.50Q107 170 116 147Q125 124 141 107.50Q157 91 187 80Q217 69 257 69Q305 69 338.50 82.50Q372 96 390 115Q408 134 417 170Q426 206 428 236Q430 266 430 316L430 631L128 631L128 700Z"  horiz-adv-x="559" vert-adv-y="1000"  />

      
      <glyph glyph-name="uni4b" unicode="&#x4b;" d="M658 124L727 107Q727 102 726 94Q725 86 718 66Q711 46 699 30.50Q687 15 661 2.50Q635-10 600-10Q560-10 534 18Q508 46 494.50 89Q481 132 470 177Q459 222 440.50 261.50Q422 301 394 316Q355 337 312 337L228 253L228 69L324 69L324 0L50 0L50 69L146 69L146 631L50 631L50 700L324 700L324 631L228 631L228 366L498 631L417 631L417 700L692 700L692 631L606 631L374 399Q460 394 503 308Q524 265 541 203Q558 141 570 106.50Q582 72 600 69Q650 61 658 124Z"  horiz-adv-x="747" vert-adv-y="1000"  />

      
      <glyph glyph-name="uni4c" unicode="&#x4c;" d="M589 165L658 165L658 0L50 0L50 69L146 69L146 631L50 631L50 700L324 700L324 631L228 631L228 69L589 69L589 165Z"  horiz-adv-x="698" vert-adv-y="1000"  />

      
      <glyph glyph-name="uni4d" unicode="&#x4d;" d="M939 631L842 631L842 69L939 69L939 0L664 0L664 69L760 69L760 563L523 242L465 242L228 563L228 69L324 69L324 0L50 0L50 69L146 69L146 631L50 631L50 700L228 700L494 330L760 700L939 700L939 631Z"  horiz-adv-x="989" vert-adv-y="1000"  />

      
      <glyph glyph-name="uni4e" unicode="&#x4e;" d="M818 700L818 631L722 631L722 0L640 0L228 570L228 69L324 69L324 0L50 0L50 69L146 69L146 631L50 631L50 700L228 700L640 130L640 631L544 631L544 700L818 700Z"  horiz-adv-x="868" vert-adv-y="1000"  />

      
      <glyph glyph-name="uni4f" unicode="&#x4f;" d="M407 704Q569 704 666.50 605Q764 506 764 347Q764 187 666.50 88.50Q569-10 407-10Q247-10 148.50 89Q50 188 50 347Q50 511 147 607.50Q244 704 407 704M407 64Q528 64 606 143Q684 222 684 347Q684 472 607 551Q530 630 407 630Q284 630 207 551Q130 472 130 347Q130 221 207 142.50Q284 64 407 64Z"  horiz-adv-x="814" vert-adv-y="1000"  />

      
      <glyph glyph-name="uni50" unicode="&#x50;" d="M432 700Q556 700 622 649.50Q688 599 688 500Q688 445 667 404.50Q646 364 609.50 342Q573 320 530.50 309.50Q488 299 439 299L228 299L228 69L324 69L324 0L50 0L50 69L146 69L146 631L50 631L50 700L432 700M427 368Q608 368 608 500Q608 568 555 599.50Q502 631 418 631L228 631L228 368L427 368Z"  horiz-adv-x="718" vert-adv-y="1000"  />

      
      <glyph glyph-name="uni51" unicode="&#x51;" d="M846-26Q846-29 847-33.50Q848-38 847.50-52Q847-66 845-78.50Q843-91 836.50-106.50Q830-122 819-133Q808-144 789-151.50Q770-159 745-159Q691-159 649-111.50Q607-64 557 25Q482-10 387-10Q227-10 128.50 89Q30 188 30 347Q30 512 127 608Q224 704 387 704Q549 704 646.50 605.50Q744 507 744 347Q744 162 617 63Q643 17 656-5.50Q669-28 688-52.50Q707-77 722-83Q748-93 766-75Q784-57 778-9L846-26M387 64Q460 64 518 93Q459 194 413 218L456 273Q508 253 577 134Q664 215 664 347Q664 473 587.50 551.50Q511 630 387 630Q264 630 187 551Q110 472 110 347Q110 222 187 143Q264 64 387 64Z"  horiz-adv-x="878" vert-adv-y="1000"  />

      
      <glyph glyph-name="uni52" unicode="&#x52;" d="M678 124L747 106Q747 101 746 93.50Q745 86 738 66Q731 46 719 30.50Q707 15 680.50 2.50Q654-10 619-10Q574-10 538.50 28.50Q503 67 484 116Q465 165 437.50 220Q410 275 381 298L228 298L228 69L324 69L324 0L50 0L50 69L146 69L146 631L50 631L50 700L432 700Q556 700 622 649.50Q688 599 688 499Q688 405 629.50 356.50Q571 308 480 300Q506 262 533 202Q560 142 579.50 107Q599 72 619 69Q668 61 678 124M228 631L228 368L427 368Q608 368 608 499Q608 631 418 631L228 631Z"  horiz-adv-x="767" vert-adv-y="1000"  />

      
      <glyph glyph-name="uni53" unicode="&#x53;" d="M305 704Q379 704 434.50 683.50Q490 663 517.50 617.50Q545 572 526 509L451 522Q453 526 456 533Q459 540 458 558Q457 576 446 590.50Q435 605 399 618.50Q363 632 305 635Q252 638 214.50 628Q177 618 160 605Q143 592 133.50 569.50Q124 547 123 537Q122 527 122 512Q123 497 123.50 491Q124 485 133.50 465.50Q143 446 160.50 433.50Q178 421 215.50 406Q253 391 307 383Q448 361 509.50 313.50Q571 266 565 175Q553-15 288-10Q141-8 81.50 42.50Q22 93 52 191L124 176Q124 176 115 153Q102 89 195 66Q232 57 285 56Q479 51 486 177Q487 198 480.50 215Q474 232 453 252Q432 272 384 289Q336 306 262 319Q202 329 158 349Q114 369 89 394Q64 419 52 450Q40 481 40 512Q40 543 50 576Q58 602 72.50 623Q87 644 103 657.50Q119 671 142.50 680Q166 689 184 694Q202 699 228.50 701Q255 703 268.50 703.50Q282 704 305 704Z"  horiz-adv-x="606" vert-adv-y="1000"  />

      
      <glyph glyph-name="uni54" unicode="&#x54;" d="M50 700L702 700L702 535L633 535L633 631L417 631L417 69L513 69L513 0L239 0L239 69L335 69L335 631L119 631L119 535L50 535L50 700Z"  horiz-adv-x="752" vert-adv-y="1000"  />

      
      <glyph glyph-name="uni55" unicode="&#x55;" d="M845 700L845 631L749 631L749 334Q749-10 448-10Q389-10 338.50 6.50Q288 23 243 60Q198 97 172.50 166.50Q147 236 147 333L147 631L50 631L50 700L325 700L325 631L228 631L228 356Q228 73 448 73Q562 73 614.50 134.50Q667 196 667 355L667 631L571 631L571 700L845 700Z"  horiz-adv-x="895" vert-adv-y="1000"  />

      
      <glyph glyph-name="uni56" unicode="&#x56;" d="M841 700L841 630L758 630L490 0L487 0L402 0L400 0L131 630L50 630L50 700L307 700L307 630L219 630L445 99L671 630L584 630L584 700L841 700Z"  horiz-adv-x="891" vert-adv-y="1000"  />

      
      <glyph glyph-name="uni57" unicode="&#x57;" d="M1216 700L1216 630L1138 630L899 0L811 0L633 572L455 0L367 0L128 630L50 630L50 700L306 700L306 630L213 630L408 115L590 700L676 700L857 115L1053 630L959 630L959 700L1216 700Z"  horiz-adv-x="1266" vert-adv-y="1000"  />

      
      <glyph glyph-name="uni58" unicode="&#x58;" d="M670 69L766 69L766 0L492 0L492 69L575 69L408 297L241 69L324 69L324 0L50 0L50 69L146 69L360 363L165 631L68 631L68 700L343 700L343 631L260 631L408 428L555 631L473 631L473 700L747 700L747 631L651 631L456 363L670 69Z"  horiz-adv-x="816" vert-adv-y="1000"  />

      
      <glyph glyph-name="uni59" unicode="&#x59;" d="M641 630L430 279L430 69L526 69L526 0L252 0L252 69L348 69L348 280L137 630L50 630L50 700L324 700L324 630L231 630L389 354L547 630L454 630L454 700L728 700L728 630L641 630Z"  horiz-adv-x="778" vert-adv-y="1000"  />

      
      <glyph glyph-name="uni5a" unicode="&#x5a;" d="M558 165L628 165L628 0L50 0L50 69L512 630L126 630L126 534L57 534L57 700L613 700L613 630L151 69L558 69L558 165Z"  horiz-adv-x="678" vert-adv-y="1000"  />

      
      <glyph glyph-name="uni5f" unicode="&#x5f;" d="M447-8L447-78L50-78L50-8L447-8Z"  horiz-adv-x="497" vert-adv-y="1000"  />

      
      <glyph glyph-name="uni60" unicode="&#x60;" d="M50 815L154 815L200 608L127 608L50 815Z"  horiz-adv-x="250" vert-adv-y="1000"  />

      
      <glyph glyph-name="uni61" unicode="&#x61;" d="M463 73L481 15Q444-10 400-10Q334-10 323 54Q278 9 215.50-5.50Q153-20 103 5Q53 30 43 88Q29 169 79 217.50Q129 266 221 266Q283 266 321 258Q321 320 299 346.50Q277 373 206 373Q168 373 154 357.50Q140 342 144 327L149 312L81 302Q80 305 78.50 310Q77 315 75.50 330Q74 345 75.50 358.50Q77 372 85 388.50Q93 405 107 417Q121 429 148 437Q175 445 211 445Q303 445 353 401.50Q403 358 403 276L403 155Q403 151 403 142.50Q403 134 403 129.50Q403 125 403 117.50Q403 110 403.50 105.50Q404 101 404.50 95Q405 89 406 85.50Q407 82 408 78Q409 74 411 71.50Q413 69 415 67Q426 61 436.50 62.50Q447 64 455 68L463 73M115 106Q129 47 200.50 54.50Q272 62 321 116L321 211Q286 220 225 215Q171 210 139 180.50Q107 151 115 106Z"  horiz-adv-x="521" vert-adv-y="1000"  />

      
      <glyph glyph-name="uni62" unicode="&#x62;" d="M311 445Q414 445 475 382Q536 319 536 218Q536 114 481 52Q426-10 325-10Q274-10 236 20.50Q198 51 194 69L182 0L114 0L114 650Q114 671 113 679.50Q112 688 105 695.50Q98 703 83 702.50Q68 702 40 696L40 765Q77 776 111 776Q195 776 195 683L195 399Q235 445 311 445M314 63Q380 63 418.50 105.50Q457 148 457 218Q457 286 416.50 329.50Q376 373 311 373Q209 373 195 312L195 164Q223 63 314 63Z"  horiz-adv-x="576" vert-adv-y="1000"  />

      
      <glyph glyph-name="uni63" unicode="&#x63;" d="M259 63Q350 63 372 128L441 107Q427 55 381.50 22.50Q336-10 259-10Q150-10 90 54.50Q30 119 30 218Q30 317 87 381Q144 445 250 445Q337 445 393 403.50Q449 362 422 280L351 295Q356 313 355.50 326Q355 339 342.50 347.50Q330 356 319 361Q308 366 291.50 368.50Q275 371 266.50 371.50Q258 372 250 372Q195 372 152 330.50Q109 289 109 218Q109 145 151.50 104Q194 63 259 63Z"  horiz-adv-x="481" vert-adv-y="1000"  />

      
      <glyph glyph-name="uni64" unicode="&#x64;" d="M513 73L531 15Q489-10 455-10Q376-10 371 71Q364 48 328 19Q292-10 241-10Q140-10 85 52Q30 114 30 218Q30 319 91 382Q152 445 255 445Q331 445 371 399L371 650Q371 671 370 679.50Q369 688 362 695.50Q355 703 340 702.50Q325 702 297 696L297 765Q334 776 368 776Q452 776 452 683L452 116Q452 79 463.50 68Q475 57 513 73M252 63Q343 63 371 164L371 312Q357 373 255 373Q190 373 149.50 329.50Q109 286 109 218Q109 148 147.50 105.50Q186 63 252 63Z"  horiz-adv-x="571" vert-adv-y="1000"  />

      
      <glyph glyph-name="uni65" unicode="&#x65;" d="M240 445Q326 445 369.50 386Q413 327 413 218Q413 199 412 190L110 190Q118 131 150 95.50Q182 60 234 60Q284 60 313 75.50Q342 91 367 122L419 85Q384 34 341.50 12Q299-10 234-10Q141-10 85.50 53Q30 116 30 218Q30 323 87 384Q144 445 240 445M240 376Q188 376 154 345.50Q120 315 109 259L331 259Q327 376 240 376Z"  horiz-adv-x="459" vert-adv-y="1000"  />

      
      <glyph glyph-name="uni66" unicode="&#x66;" d="M355 545L286 560Q296 581 297 596Q298 611 291.50 619Q285 627 277 630.50Q269 634 256 636Q218 643 204.50 626Q191 609 191 564L191 434L319 434L319 365L191 365L191 2Q191-92 106-92Q91-92 72-86Q53-80 42-74L30-67L48-9Q87-25 98-14.50Q109-4 109 34L109 365L35 365L35 434L109 434L109 586Q109 648 141.50 678.50Q174 709 225 709Q294 709 332 684.50Q370 660 372 624Q374 588 355 545Z"  horiz-adv-x="353" vert-adv-y="1000"  />

      
      <glyph glyph-name="uni67" unicode="&#x67;" d="M532-106Q544-187 475-238.50Q406-290 256-290Q168-290 109-262Q50-234 31-192.50Q12-151 28-101Q44-51 96-8Q48 21 45 66Q42 117 97 167Q65 213 65 272Q65 353 116 401Q167 449 252 449Q335 449 388 401Q396 445 452 445Q467 445 483.50 442.50Q500 440 508 437L517 434L517 365Q471 386 449.50 378Q428 370 429 338Q440 307 440 272Q440 193 388.50 144Q337 95 252 95Q189 95 140 126Q129 111 124 99Q119 87 121.50 73Q124 59 140 50Q156 41 193.50 34.50Q231 28 289 28Q513 28 532-106M252 385Q201 385 169.50 353.50Q138 322 138 272Q138 222 169.50 190.50Q201 159 252 159Q302 159 334.50 191Q367 223 367 272Q367 322 335.50 353.50Q304 385 252 385M256-211Q315-211 357-201.50Q399-192 418.50-177Q438-162 445.50-147.50Q453-133 450-118Q438-48 293-48Q212-48 158-33Q130-54 114.50-78.50Q99-103 101-126.50Q103-150 118.50-169Q134-188 170-199.50Q206-211 256-211Z"  horiz-adv-x="554" vert-adv-y="1000"  />

      
      <glyph glyph-name="uni68" unicode="&#x68;" d="M562 73L580 15Q538-10 504-10Q425-10 419 71L419 275Q419 332 394.50 352.50Q370 373 320 373Q220 373 196 287L196 69L270 69L270 0L40 0L40 69L114 69L114 650Q114 671 113 679.50Q112 688 105 695.50Q98 703 83 702.50Q68 702 40 696L40 765Q77 776 111 776Q196 776 196 683L196 382Q242 445 323 445Q413 445 457 407Q501 369 501 267L501 116Q501 79 512.50 68Q524 57 562 73Z"  horiz-adv-x="600" vert-adv-y="1000"  />

      
      <glyph glyph-name="uni69" unicode="&#x69;" d="M164 563Q164 541 148.50 525.50Q133 510 111 510Q89 510 73.50 525.50Q58 541 58 563Q58 585 73.50 600.50Q89 616 111 616Q134 616 149 601Q164 586 164 563M227 73L245 15Q203-10 169-10Q84-10 84 84L84 328Q84 360 73 367Q62 374 10 365L10 434Q47 445 81 445Q166 445 166 352L166 116Q166 79 177.50 68Q189 57 227 73Z"  horiz-adv-x="275" vert-adv-y="1000"  />

      
      <glyph glyph-name="uni6a" unicode="&#x6a;" d="M180.50 600.50Q180.50 600.50 188.25 592.75Q196 585 196 563Q196 541 180.50 525.50Q165 510 143 510Q121 510 105.50 525.50Q90 541 90 563Q90 585 105.50 600.50Q121 616 143 616Q165 616 180.50 600.50M42 434L198 434L198-81Q198-237 80-237Q17-237-20-203L-2-145Q50-179 83-164Q116-149 116-88L116 365L42 365L42 434Z"  horiz-adv-x="238" vert-adv-y="1000"  />

      
      <glyph glyph-name="uni6b" unicode="&#x6b;" d="M509 102L578 87Q578 83 576.50 76.50Q575 70 568 53.50Q561 37 550.50 24Q540 11 518 0.50Q496-10 467-10Q434-10 411.50 16Q389 42 378.50 74.50Q368 107 351.50 142.50Q335 178 315 191Q296 203 274 207L206 138L206 69L280 69L280 0L50 0L50 69L124 69L124 650Q124 671 123 679.50Q122 688 115 695.50Q108 703 93 702.50Q78 702 50 696L50 765Q87 776 121 776Q206 776 206 683L206 241L330 365L280 365L280 434L509 434L509 365L431 365L335 268Q378 257 401 217Q418 189 430 150Q442 111 449.50 88Q457 65 469 63Q500 57 509 102Z"  horiz-adv-x="598" vert-adv-y="1000"  />

      
      <glyph glyph-name="uni6c" unicode="&#x6c;" d="M256 73L274 15Q232-10 198-10Q114-10 114 84L114 93L114 658Q113 691 102.50 698Q92 705 40 696L40 765Q77 776 111 776Q195 776 195 683L195 116Q195 79 206.50 68Q218 57 256 73Z"  horiz-adv-x="304" vert-adv-y="1000"  />

      
      <glyph glyph-name="uni6d" unicode="&#x6d;" d="M823 73L841 15Q800-10 765-10Q681-10 681 84L681 275Q681 332 656 352.50Q631 373 581 373Q530 373 508.50 349.50Q487 326 484 284L484 69L556 69L556 0L402 0L402 275Q402 332 377 352.50Q352 373 302 373Q215 373 206 294L206 69L280 69L280 0L50 0L50 69L124 69L124 319Q124 340 123 348.50Q122 357 115 365Q108 373 93 372Q78 371 50 365L50 434Q87 446 121 446Q189 446 203 385Q245 445 314 445Q377 445 414.50 427.50Q452 410 469 365Q512 445 593 445Q681 445 721.50 407.50Q762 370 762 267Q762 244 762.50 188Q763 132 763 116Q763 78 774 67.50Q785 57 823 73Z"  horiz-adv-x="861" vert-adv-y="1000"  />

      
      <glyph glyph-name="uni6e" unicode="&#x6e;" d="M572 73L590 15Q548-10 514-10Q429-10 429 84L429 275Q429 332 404.50 352.50Q380 373 330 373Q230 373 206 287L206 69L280 69L280 0L50 0L50 69L124 69L124 319Q124 340 123 348.50Q122 357 115 365Q108 373 93 372Q78 371 50 365L50 434Q87 446 122 446Q193 446 204 379Q250 445 333 445Q423 445 467 407Q511 369 511 267L511 116Q511 79 522.50 68Q534 57 572 73Z"  horiz-adv-x="610" vert-adv-y="1000"  />

      
      <glyph glyph-name="uni6f" unicode="&#x6f;" d="M258 445Q361 445 423 382Q485 319 485 217Q485 116 423 53Q361-10 258-10Q156-10 93 53Q30 116 30 217Q30 322 91.50 383.50Q153 445 258 445M258 62Q323 62 364.50 105.50Q406 149 406 217Q406 286 365.50 329Q325 372 258 372Q192 372 150.50 329Q109 286 109 217Q109 149 150.50 105.50Q192 62 258 62Z"  horiz-adv-x="515" vert-adv-y="1000"  />

      
      <glyph glyph-name="uni70" unicode="&#x70;" d="M305 445Q406 445 461 383.50Q516 322 516 218Q516 116 455 53Q394-10 291-10Q215-10 175 37L175-165L249-165L249-234L20-234L20-165L93-165L93 319Q93 340 92 348.50Q91 357 84 364.50Q77 372 62 371.50Q47 371 20 365L20 434Q56 445 91 445Q169 445 175 364Q182 387 218 416Q254 445 305 445M291 63Q355 63 396 106.50Q437 150 437 218Q437 287 398 329.50Q359 372 294 372Q203 372 175 271L175 124Q189 63 291 63Z"  horiz-adv-x="546" vert-adv-y="1000"  />

      
      <glyph glyph-name="uni71" unicode="&#x71;" d="M443-165L516-165L516-234L287-234L287-165L361-165L361 37Q321-10 245-10Q142-10 81 53Q20 116 20 218Q20 322 75 383.50Q130 445 231 445Q285 445 321.50 414.50Q358 384 362 364L374 434L443 434L443-165M245 63Q347 63 361 124L361 271Q333 372 242 372Q177 372 138 329.50Q99 287 99 218Q99 150 140 106.50Q181 63 245 63Z"  horiz-adv-x="496" vert-adv-y="1000"  />

      
      <glyph glyph-name="uni72" unicode="&#x72;" d="M340 445Q398 445 429 421Q460 397 458 360.50Q456 324 432 280L361 296Q382 330 372.50 351.50Q363 373 322 373Q283 373 247.50 347Q212 321 206 291L206 69L307 69L307 0L50 0L50 69L124 69L124 319Q124 340 123 348.50Q122 357 115 364.50Q108 372 93 371.50Q78 371 50 365L50 434Q87 445 121 445Q196 445 205 372Q265 445 340 445Z"  horiz-adv-x="479" vert-adv-y="1000"  />

      
      <glyph glyph-name="uni73" unicode="&#x73;" d="M199 445Q285 445 328.50 410Q372 375 354 313L281 321Q284 326 286 333.50Q288 341 268.50 356.50Q249 372 199 377Q151 383 125.50 369.50Q100 356 98 332Q96 308 122 287Q148 266 201 252Q304 225 344 195.50Q384 166 381 108Q378 41 330 15.50Q282-10 189-10Q93-10 53 26Q13 62 30 126L97 117Q96 114 95 110Q94 106 95.50 95Q97 84 104.50 76Q112 68 133 61Q154 54 186 54Q256 54 280.50 66.50Q305 79 307 109Q309 133 282.50 152Q256 171 172 189Q79 209 44 258.50Q9 308 26 364Q34 392 54.50 410.50Q75 429 105 435.50Q135 442 153.50 443.50Q172 445 199 445Z"  horiz-adv-x="402" vert-adv-y="1000"  />

      
      <glyph glyph-name="uni74" unicode="&#x74;" d="M388 181Q415 111 381.50 50.50Q348-10 248-10Q94-10 84 113L83 113L83 365L10 365L10 434L83 434L83 578L165 605L165 434L294 434L294 365L165 365L165 138Q165 57 253 59Q293 60 315 89Q337 118 314 166L388 181Z"  horiz-adv-x="421" vert-adv-y="1000"  />

      
      <glyph glyph-name="uni75" unicode="&#x75;" d="M471 116Q471 95 472 87Q473 79 480 71Q487 63 502 64Q517 65 545 71L545 1Q508-10 473-10Q402-10 391 56Q345-10 262-10Q172-10 128 28Q84 66 84 168L84 366L10 366L10 435L84 435L166 435L166 160Q166 103 190.50 83Q215 63 265 63Q365 63 389 148L389 154L389 366L315 366L315 435L471 435L471 116Z"  horiz-adv-x="575" vert-adv-y="1000"  />

      
      <glyph glyph-name="uni76" unicode="&#x76;" d="M595 434L595 365L521 365L348 0L347 0L258 0L256 0L84 365L10 365L10 434L239 434L239 365L174 365L302 94L431 365L365 365L365 434L595 434Z"  horiz-adv-x="635" vert-adv-y="1000"  />

      
      <glyph glyph-name="uni77" unicode="&#x77;" d="M874 434L874 365L802 365L641 0L549 0L442 308L335 0L243 0L82 365L10 365L10 434L240 434L240 365L172 365L284 112L396 434L488 434L600 112L712 365L644 365L644 434L874 434Z"  horiz-adv-x="914" vert-adv-y="1000"  />

      
      <glyph glyph-name="uni78" unicode="&#x78;" d="M476 69L571 69L571 0L342 0L342 69L381 69L309 158L238 69L279 69L279 0L50 0L50 69L143 69L262 217L143 365L58 365L58 434L287 434L287 365L238 365L309 276L381 365L333 365L333 434L562 434L562 365L476 365L357 217L476 69Z"  horiz-adv-x="621" vert-adv-y="1000"  />

      
      <glyph glyph-name="uni79" unicode="&#x79;" d="M594 434L594 365L530 365Q517 330 477 230Q437 130 417 78Q351-88 321-137Q266-229 187-235Q181-235 175-235Q141-235 116.50-223.50Q92-212 82-195.50Q72-179 66.50-162.50Q61-146 61-134L61-123L131-109Q133-111 130.50-124Q128-137 140-152.50Q152-168 177-168Q232-168 289-34L121 365L20 365L20 434L176 434L177 434L329 68Q334 82 378 198.50Q422 315 441 365L365 365L365 434L594 434Z"  horiz-adv-x="634" vert-adv-y="1000"  />

      
      <glyph glyph-name="uni7a" unicode="&#x7a;" d="M376 156L445 156L445 0L50 0L50 69L51 69L335 365L125 365L125 278L56 278L56 434L436 434L436 365L152 69L376 69L376 156Z"  horiz-adv-x="485" vert-adv-y="1000"  />

      
      <glyph glyph-name="uni7c" unicode="&#x7c;" d="M132 857L132-153L50-153L50 857L132 857Z"  horiz-adv-x="182" vert-adv-y="1000"  />

      
      <glyph glyph-name="unia5" unicode="&#xa5;" d="M728 630L641 630L473 349L641 349L641 280L430 280L430 279L430 244L641 244L641 175L430 175L430 69L526 69L526 0L252 0L252 69L348 69L348 175L136 175L136 244L348 244L348 280L136 280L136 349L306 349L137 630L50 630L50 700L324 700L324 630L231 630L389 355L547 630L454 630L454 700L728 700L728 630Z"  horiz-adv-x="778" vert-adv-y="1000"  />

      
      <glyph glyph-name="unia6" unicode="&#xa6;" d="M132 700L132 433L50 433L50 700L132 700M132 271L132 0L50 0L50 271L132 271Z"  horiz-adv-x="182" vert-adv-y="1000"  />

      
      <glyph glyph-name="uni0401" unicode="&#x0401;" d="M346 807Q346 788 332 773.50Q318 759 298 759Q278 759 264 773Q250 787 250 807Q250 827 264 841.50Q278 856 298 856Q318 856 332 841.50Q346 827 346 807M519 841.50Q519 841.50 526 834.25Q533 827 533 807Q533 787 519 773Q505 759 485 759Q465 759 451 773Q437 787 437 807Q437 827 451 841.50Q465 856 485 856Q505 856 519 841.50M50 700L639 700L639 535L570 535L570 631L228 631L228 401L574 401L574 332L228 332L228 69L570 69L570 166L639 166L639 0L50 0L50 69L146 69L146 631L50 631L50 700Z"  horiz-adv-x="679" vert-adv-y="1000"  />

      
      <glyph glyph-name="uni0410" unicode="&#x0410;" d="M758 69L841 69L841 0L584 0L584 69L671 69L609 214L280 214L219 69L307 69L307 0L50 0L50 69L132 69L370 631L274 631L274 700L490 700L758 69M310 283L580 283L445 601L310 283Z"  horiz-adv-x="891" vert-adv-y="1000"  />

      
      <glyph glyph-name="uni0411" unicode="&#x0411;" d="M447 402Q555 402 622 354.50Q689 307 689 201Q689 104 621 52Q553 0 442 0L50 0L50 69L147 69L147 631L50 631L50 700L610 700L610 535L541 535L541 631L228 631L228 402L447 402M438 69Q512 69 560 102Q608 135 608 201Q608 332 444 332L228 332L228 69L438 69Z"  horiz-adv-x="719" vert-adv-y="1000"  />

      
      <glyph glyph-name="uni0412" unicode="&#x0412;" d="M574 375Q688 328 688 201Q688 104 619 52Q550 0 442 0L50 0L50 69L146 69L146 631L50 631L50 700L440 700Q480 700 514.50 691.50Q549 683 581 663Q613 643 631.50 604.50Q650 566 650 513Q650 430 574 375M428 631L228 631L228 401L421 401Q490 401 531 432.50Q572 464 572 513Q572 578 535 604.50Q498 631 428 631M439 69Q506 69 557 102.50Q608 136 608 201Q608 240 592 267Q576 294 548.50 307Q521 320 495.50 325Q470 330 441 330L228 330L228 69L439 69Z"  horiz-adv-x="718" vert-adv-y="1000"  />

      
      <glyph glyph-name="uni0413" unicode="&#x0413;" d="M50 700L580 700L580 535L511 535L511 631L229 631L229 69L325 69L325 0L50 0L50 69L147 69L147 631L50 631L50 700Z"  horiz-adv-x="630" vert-adv-y="1000"  />

      
      <glyph glyph-name="uni0414" unicode="&#x0414;" d="M749 631L653 631L653 69L749 69L749-118L680-118L680 0L119 0L119-118L50-118L50 69L135 69Q163 127 182 210.50Q201 294 208.50 378Q216 462 218.50 521.50Q221 581 221 631L126 631L126 700L749 700L749 631M571 69L571 631L305 631L304 631Q299 278 219 69L571 69Z"  horiz-adv-x="799" vert-adv-y="1000"  />

      
      <glyph glyph-name="uni0415" unicode="&#x0415;" d="M50 700L639 700L639 535L570 535L570 631L228 631L228 401L574 401L574 332L228 332L228 69L570 69L570 166L639 166L639 0L50 0L50 69L146 69L146 631L50 631L50 700Z"  horiz-adv-x="689" vert-adv-y="1000"  />

      
      <glyph glyph-name="uni0416" unicode="&#x0416;" d="M1032 124L1101 107Q1101 102 1100 94Q1099 86 1092 66Q1085 46 1073 30.50Q1061 15 1035 2.50Q1009-10 974-10Q934-10 907.50 18Q881 46 868 89Q855 132 844 177Q833 222 814.50 261.50Q796 301 768 316Q730 337 686 337L602 253L602 69L698 69L698 0L423 0L423 69L520 69L520 253L435 337Q392 337 353 316Q325 301 306.50 261.50Q288 222 277 177Q266 132 253 89Q240 46 213.50 18Q187-10 147-10Q112-10 86 2Q60 14 48 31Q36 48 29 65.50Q22 83 21 95L20 107L89 124Q97 61 148 69Q166 72 178 106.50Q190 141 206.50 203Q223 265 244 308Q287 394 374 399L141 631L56 631L56 700L330 700L330 631L249 631L520 366L520 631L423 631L423 700L698 700L698 631L602 631L602 366L872 631L791 631L791 700L1066 700L1066 631L980 631L748 399Q834 394 877 308Q898 265 915 203Q932 141 944 106.50Q956 72 974 69Q1024 61 1032 124Z"  horiz-adv-x="1121" vert-adv-y="1000"  />

      
      <glyph glyph-name="uni0417" unicode="&#x0417;" d="M470 370Q515 354 549 309Q583 264 583 193Q583 105 510 47.50Q437-10 312-10Q195-10 132.50 25.50Q70 61 40 132L108 156Q154 62 319 62Q389 62 447.50 100Q506 138 506 193Q506 324 327 324L202 323L202 393L346 393Q407 393 441 430Q475 467 475 516Q475 560 434.50 596.50Q394 633 299 633Q290 633 285 633Q280 633 264 632Q248 631 237.50 628.50Q227 626 210.50 621.50Q194 617 183.50 610Q173 603 162 592.50Q151 582 146.50 568Q142 554 142 534.50Q142 515 150 492L76 473Q38 590 102 647Q166 704 319 704Q353 704 389.50 695Q426 686 464 666.50Q502 647 526 608Q550 569 550 516Q550 466 525 427.50Q500 389 470 370Z"  horiz-adv-x="623" vert-adv-y="1000"  />

      
      <glyph glyph-name="uni0418" unicode="&#x0418;" d="M818 631L721 631L721 69L818 69L818 0L543 0L543 69L640 69L640 570L228 0L146 0L146 631L50 631L50 700L324 700L324 631L228 631L228 131L640 700L818 700L818 631Z"  horiz-adv-x="868" vert-adv-y="1000"  />

      
      <glyph glyph-name="uni0419" unicode="&#x0419;" d="M379.50 848Q379.50 848 396.75 834Q414 820 462 820Q510 820 544.50 847.50Q579 875 582 915L638 915Q638 850 587 804.50Q536 759 462 759Q388 759 337 804.50Q286 850 286 915L342 915Q345 876 379.50 848M818 631L721 631L721 69L818 69L818 0L543 0L543 69L640 69L640 570L228 0L146 0L146 631L50 631L50 700L324 700L324 631L228 631L228 131L640 700L818 700L818 631Z"  horiz-adv-x="868" vert-adv-y="1000"  />

      
      <glyph glyph-name="uni041A" unicode="&#x041A;" d="M658 124L727 107Q727 102 726 94Q725 86 718 66Q711 46 699 30.50Q687 15 661 2.50Q635-10 600-10Q560-10 534 18Q508 46 494.50 89Q481 132 470 177Q459 222 440.50 261.50Q422 301 394 316Q355 337 312 337L228 253L228 69L324 69L324 0L50 0L50 69L146 69L146 631L50 631L50 700L324 700L324 631L228 631L228 366L498 631L417 631L417 700L692 700L692 631L606 631L374 399Q460 394 503 308Q524 265 541 203Q558 141 570 106.50Q582 72 600 69Q650 61 658 124Z"  horiz-adv-x="737" vert-adv-y="1000"  />

      
      <glyph glyph-name="uni041B" unicode="&#x041B;" d="M747 631L651 631L651 69L747 69L747 0L473 0L473 69L569 69L569 631L322 631L321 631Q320 609 311.50 472Q303 335 299 270Q296 229 294 206Q292 183 286 144.50Q280 106 269.50 83.50Q259 61 243 37Q227 13 201.50 1.50Q176-10 143-10Q107-10 81 2.50Q55 15 44 33Q33 51 27 69Q21 87 21 100L21 112L97 124Q97 122 97 118Q97 114 99.50 104.50Q102 95 106 87.50Q110 80 118.50 74Q127 68 138 68Q179 68 197.50 123.50Q216 179 223 336Q233 540 241 631L144 631L144 700L747 700L747 631Z"  horiz-adv-x="797" vert-adv-y="1000"  />

      
      <glyph glyph-name="uni041C" unicode="&#x041C;" d="M939 631L842 631L842 69L939 69L939 0L664 0L664 69L760 69L760 563L523 242L465 242L228 563L228 69L324 69L324 0L50 0L50 69L146 69L146 631L50 631L50 700L228 700L494 330L760 700L939 700L939 631Z"  horiz-adv-x="989" vert-adv-y="1000"  />

      
      <glyph glyph-name="uni041D" unicode="&#x041D;" d="M818 631L722 631L722 69L818 69L818 0L544 0L544 69L640 69L640 332L229 332L229 69L325 69L325 0L50 0L50 69L147 69L147 631L50 631L50 700L325 700L325 631L229 631L229 401L640 401L640 631L544 631L544 700L818 700L818 631Z"  horiz-adv-x="868" vert-adv-y="1000"  />

      
      <glyph glyph-name="uni041E" unicode="&#x041E;" d="M397 704Q559 704 656.50 605Q754 506 754 347Q754 187 656.50 88.50Q559-10 397-10Q237-10 138.50 89Q40 188 40 347Q40 511 137 607.50Q234 704 397 704M397 64Q518 64 596 143Q674 222 674 347Q674 472 597 551Q520 630 397 630Q274 630 197 551Q120 472 120 347Q120 221 197 142.50Q274 64 397 64Z"  horiz-adv-x="794" vert-adv-y="1000"  />

      
      <glyph glyph-name="uni041F" unicode="&#x041F;" d="M818 631L722 631L722 69L818 69L818 0L544 0L544 69L640 69L640 631L228 631L228 69L324 69L324 0L50 0L50 69L146 69L146 631L50 631L50 700L818 700L818 631Z"  horiz-adv-x="868" vert-adv-y="1000"  />

      
      <glyph glyph-name="uni0420" unicode="&#x0420;" d="M432 700Q556 700 622 649.50Q688 599 688 500Q688 445 667 404.50Q646 364 609.50 342Q573 320 530.50 309.50Q488 299 439 299L228 299L228 69L324 69L324 0L50 0L50 69L146 69L146 631L50 631L50 700L432 700M427 368Q608 368 608 500Q608 568 555 599.50Q502 631 418 631L228 631L228 368L427 368Z"  horiz-adv-x="718" vert-adv-y="1000"  />

      
      <glyph glyph-name="uni0421" unicode="&#x0421;" d="M389 64Q539 64 583 175L655 150Q596-10 389-10Q219-10 124.50 91Q30 192 30 347Q30 503 119.50 603.50Q209 704 376 704Q416 704 453.50 696.50Q491 689 529 672Q567 655 590 627Q613 599 622 557Q631 515 611 459L537 477Q544 505 546.50 526Q549 547 538.50 563Q528 579 517.50 590Q507 601 487.50 608.50Q468 616 454 620Q440 624 421.50 626Q403 628 394 628.50Q385 629 376 629Q254 629 183 549Q112 469 112 347Q112 226 188.50 145Q265 64 389 64Z"  horiz-adv-x="685" vert-adv-y="1000"  />

      
      <glyph glyph-name="uni0422" unicode="&#x0422;" d="M50 700L702 700L702 535L633 535L633 631L417 631L417 69L513 69L513 0L239 0L239 69L335 69L335 631L119 631L119 535L50 535L50 700Z"  horiz-adv-x="752" vert-adv-y="1000"  />

      
      <glyph glyph-name="uni0423" unicode="&#x0423;" d="M786 700L786 631L687 631Q612 452 559 324Q540 278 532.50 259.50Q525 241 508 202.50Q491 164 482.50 148.50Q474 133 457.50 104Q441 75 429.50 63Q418 51 400.50 33.50Q383 16 366.50 8.50Q350 1 329.50-4.50Q309-10 286-10Q250-10 222.50 1.50Q195 13 181.50 30Q168 47 159.50 64Q151 81 149 92L147 104L215 118Q215 116 216.50 112Q218 108 223 98Q228 88 235.50 80.50Q243 73 257 67Q271 61 289 61Q345 61 400 158L144 631L50 631L50 700L325 700L325 631L229 631L440 238Q447 254 459.50 283.50Q472 313 473 314Q520 423 602 631L511 631L511 700L786 700Z"  horiz-adv-x="836" vert-adv-y="1000"  />

      
      <glyph glyph-name="uni0424" unicode="&#x0424;" d="M700.50 552Q700.50 552 742.25 514Q784 476 784 349Q784 222 701.50 146Q619 70 445 61L445 12L541 12L541-57L267-57L267 12L363 12L363 61Q195 69 107.50 146.50Q20 224 20 349Q20 477 108 553Q196 629 363 637L363 688L267 688L267 757L541 757L541 688L445 688L445 637Q617 628 700.50 552M640.50 191Q640.50 191 673.75 221.50Q707 252 707 349Q707 446 641 507Q575 568 445 577L445 121Q574 130 640.50 191M97 349Q97 252 165.50 190.50Q234 129 363 121L363 577Q231 569 164 508Q97 447 97 349Z"  horiz-adv-x="804" vert-adv-y="1000"  />

      
      <glyph glyph-name="uni0425" unicode="&#x0425;" d="M670 69L766 69L766 0L492 0L492 69L575 69L408 297L241 69L324 69L324 0L50 0L50 69L146 69L360 363L165 631L68 631L68 700L343 700L343 631L260 631L408 428L555 631L473 631L473 700L747 700L747 631L651 631L456 363L670 69Z"  horiz-adv-x="816" vert-adv-y="1000"  />

      
      <glyph glyph-name="uni0426" unicode="&#x0426;" d="M818 631L722 631L722 69L818 69L818-119L749-119L749 0L50 0L50 69L146 69L146 631L50 631L50 700L325 700L325 631L228 631L228 69L640 69L640 631L544 631L544 700L818 700L818 631Z"  horiz-adv-x="868" vert-adv-y="1000"  />

      
      <glyph glyph-name="uni0427" unicode="&#x0427;" d="M736 631L640 631L640 69L736 69L736 0L462 0L462 69L558 69L558 303Q480 242 386 242Q333 242 292.50 253.50Q252 265 217.50 293Q183 321 164.50 374Q146 427 146 504L146 631L50 631L50 700L324 700L324 631L226 631L226 565Q226 526 227 502.50Q228 479 232.50 445.50Q237 412 247.50 392Q258 372 275 352Q292 332 320 323Q348 314 386 314Q490 314 558 378L558 631L462 631L462 700L736 700L736 631Z"  horiz-adv-x="786" vert-adv-y="1000"  />

      
      <glyph glyph-name="uni0428" unicode="&#x0428;" d="M1144 631L1048 631L1048 70L1144 70L1144 0L50 0L50 70L146 70L146 631L50 631L50 700L325 700L325 631L228 631L228 70L556 70L556 631L460 631L460 700L734 700L734 631L638 631L638 70L966 70L966 631L870 631L870 700L1144 700L1144 631Z"  horiz-adv-x="1194" vert-adv-y="1000"  />

      
      <glyph glyph-name="uni0429" unicode="&#x0429;" d="M1145 631L1048 631L1048 69L1145 69L1145-118L1075-118L1075 0L50 0L50 69L147 69L147 631L50 631L50 700L325 700L325 631L229 631L229 69L557 69L557 631L460 631L460 700L735 700L735 631L638 631L638 69L966 69L966 631L870 631L870 700L1145 700L1145 631Z"  horiz-adv-x="1195" vert-adv-y="1000"  />

      
      <glyph glyph-name="uni042A" unicode="&#x042A;" d="M526 402Q634 402 701 354.50Q768 307 768 201Q768 104 700 52Q632 0 521 0L130 0L130 69L226 69L226 631L119 631L119 513L50 513L50 700L404 700L404 631L308 631L308 402L526 402M518 69Q592 69 640 102Q688 135 688 201Q688 332 524 332L308 332L308 69L518 69Z"  horiz-adv-x="788" vert-adv-y="1000"  />

      
      <glyph glyph-name="uni042B" unicode="&#x042B;" d="M1036 631L940 631L940 69L1036 69L1036 0L762 0L762 69L858 69L858 631L762 631L762 700L1036 700L1036 631M446 401Q554 401 621 354Q688 307 688 201Q688 104 620 52Q552 0 441 0L50 0L50 69L146 69L146 631L50 631L50 700L324 700L324 631L228 631L228 401L446 401M438 69Q512 69 560 102Q608 135 608 201Q608 332 444 332L228 332L228 69L438 69Z"  horiz-adv-x="1086" vert-adv-y="1000"  />

      
      <glyph glyph-name="uni042C" unicode="&#x042C;" d="M446 402Q554 402 621 354.50Q688 307 688 201Q688 104 620 52Q552 0 441 0L50 0L50 70L146 70L146 631L50 631L50 700L324 700L324 631L228 631L228 402L446 402M437 69Q511 69 559.50 102Q608 135 608 201Q608 333 444 333L228 333L228 69L437 69Z"  horiz-adv-x="708" vert-adv-y="1000"  />

      
      <glyph glyph-name="uni042D" unicode="&#x042D;" d="M310 704Q477 704 566.50 603.50Q656 503 656 347Q656 192 561.50 91Q467-10 296-10Q90-10 30 150L102 175Q148 64 296 64Q415 64 491 139.50Q567 215 573 330L230 330L230 398L570 398Q555 500 486.50 564.50Q418 629 310 629Q301 629 291.50 628.50Q282 628 264 626Q246 624 231 619.50Q216 615 198 608Q180 601 168 589.50Q156 578 147.50 563Q139 548 139 526Q139 504 149 477L75 459Q55 515 64 557Q73 599 95.50 627Q118 655 156 672Q194 689 232 696.50Q270 704 310 704Z"  horiz-adv-x="676" vert-adv-y="1000"  />

      
      <glyph glyph-name="uni042E" unicode="&#x042E;" d="M737 704Q899 704 996.50 605.50Q1094 507 1094 347Q1094 188 996.50 89Q899-10 737-10Q582-10 484 85Q386 180 381 332L227 332L227 69L323 69L323 0L50 0L50 69L146 69L146 631L50 631L50 700L323 700L323 631L227 631L227 401L383 401Q398 543 492.50 623.50Q587 704 737 704M737 64Q859 64 936.50 143.50Q1014 223 1014 347Q1014 473 937.50 551.50Q861 630 737 630Q614 630 537 551Q460 472 460 347Q460 222 537 143Q614 64 737 64Z"  horiz-adv-x="1114" vert-adv-y="1000"  />

      
      <glyph glyph-name="uni042F" unicode="&#x042F;" d="M717 631L621 631L621 70L717 70L717 0L443 0L443 70L539 70L539 299L386 299Q357 275 329.50 220Q302 165 283 116Q264 67 228.50 28.50Q193-10 148-10Q113-10 86.50 2Q60 14 48 31Q36 48 29 65.50Q22 83 21 95L20 107L89 124Q100 61 148 70Q168 73 187.50 108Q207 143 234 203Q261 263 287 301Q196 309 137.50 357Q79 405 79 500Q79 599 145 650Q211 701 335 701L717 701L717 631M340 368L539 368L539 631L349 632Q159 632 159 500Q159 368 340 368Z"  horiz-adv-x="767" vert-adv-y="1000"  />

      
      <glyph glyph-name="uni0430" unicode="&#x0430;" d="M453 73L471 15Q434-10 390-10Q324-10 313 54Q268 9 205.50-5.50Q143-20 93 5Q43 30 33 88Q19 169 69 217.50Q119 266 211 266Q273 266 311 258Q311 320 289 346.50Q267 373 196 373Q158 373 144 357.50Q130 342 134 327L139 312L71 302Q70 305 68.50 310Q67 315 65.50 330Q64 345 65.50 358.50Q67 372 75 388.50Q83 405 97 417Q111 429 138 437Q165 445 201 445Q293 445 343 401.50Q393 358 393 276L393 155Q393 151 393 142.50Q393 134 393 129.50Q393 125 393 117.50Q393 110 393.50 105.50Q394 101 394.50 95Q395 89 396 85.50Q397 82 398 78Q399 74 401 71.50Q403 69 405 67Q416 61 426.50 62.50Q437 64 445 68L453 73M105 106Q119 47 190.50 54.50Q262 62 311 116L311 211Q276 220 215 215Q161 210 129 180.50Q97 151 105 106Z"  horiz-adv-x="491" vert-adv-y="1000"  />

      
      <glyph glyph-name="uni0431" unicode="&#x0431;" d="M246 409Q327 409 378.50 353Q430 297 430 202Q430 107 374.50 48.50Q319-10 224-10Q182-10 145 3Q108 16 76 44Q44 72 26.50 123Q9 174 11 242Q14 357 64.50 437Q115 517 205 541Q231 548 250.50 554.50Q270 561 282.50 566.50Q295 572 303.50 578.50Q312 585 316 589Q320 593 321 600Q322 607 321.50 610Q321 613 319 621Q317 629 317 631L392 631Q394 626 395.50 618.50Q397 611 397 590Q397 569 391 552Q385 535 364.50 517.50Q344 500 310 493Q196 469 156.50 438.50Q117 408 103 343Q124 368 162.50 388.50Q201 409 246 409M224 61Q283 61 318 100.50Q353 140 353 202Q353 264 318.50 302Q284 340 224 340Q163 340 127 301.50Q91 263 91 202Q91 140 127 100.50Q163 61 224 61Z"  horiz-adv-x="450" vert-adv-y="1000"  />

      
      <glyph glyph-name="uni0432" unicode="&#x0432;" d="M407 232Q487 205 487 127Q487 0 305 0L50 0L50 69L121 69L121 365L50 365L50 434L299 434Q378 434 420.50 408.50Q463 383 463 318Q463 266 407 232M298 365L203 365L203 259L298 259Q343 259 367 271Q391 283 391 315Q391 365 298 365M303 69Q410 69 410 132Q410 169 382.50 182.50Q355 196 304 196L203 196L203 69L303 69Z"  horiz-adv-x="507" vert-adv-y="1000"  />

      
      <glyph glyph-name="uni0433" unicode="&#x0433;" d="M50 434L441 434L441 278L372 278L372 365L205 365L205 69L306 69L306 0L50 0L50 69L123 69L123 365L50 365L50 434Z"  horiz-adv-x="481" vert-adv-y="1000"  />

      
      <glyph glyph-name="uni0434" unicode="&#x0434;" d="M487 69L567 69L567-104L498-104L498 0L119 0L119-104L50-104L50 69L132 69Q174 198 181 365L104 365L104 434L487 434L487 69M214 69L405 69L405 365L260 365L258 365Q252 193 214 69Z"  horiz-adv-x="607" vert-adv-y="1000"  />

      
      <glyph glyph-name="uni0435" unicode="&#x0435;" d="M230 445Q316 445 359.50 386Q403 327 403 218Q403 199 402 190L100 190Q108 131 140 95.50Q172 60 224 60Q274 60 303 75.50Q332 91 357 122L409 85Q374 34 331.50 12Q289-10 224-10Q131-10 75.50 53Q20 116 20 218Q20 323 77 384Q134 445 230 445M230 376Q178 376 144 345.50Q110 315 99 259L321 259Q317 376 230 376Z"  horiz-adv-x="429" vert-adv-y="1000"  />

      
      <glyph glyph-name="uni0436" unicode="&#x0436;" d="M778 102L839 87Q839 83 838.50 76.50Q838 70 832.50 53.50Q827 37 817.50 24Q808 11 787 0.50Q766-10 737-10Q704-10 682 15.50Q660 41 650 73Q640 105 624 140Q608 175 587 188Q566 203 540 205L476 141L476 69L550 69L550 0L320 0L320 69L394 69L394 141L329 205Q304 203 282 188Q262 175 246 140Q230 105 220 73Q210 41 188 15.50Q166-10 133-10Q104-10 83 0Q62 10 52 24.50Q42 39 36.50 53Q31 67 30 77L30 87L91 102Q99 62 130 68Q142 70 150.50 91.50Q159 113 172 151.50Q185 190 201 217Q225 258 270 265L170 365L63 365L63 434L194 434L394 238L394 365L320 365L320 434L476 434L476 238L605 365L550 365L550 434L779 434L779 365L700 365L600 265Q645 257 668 217Q685 190 697.50 151.50Q710 113 718.50 91.50Q727 70 739 68Q773 62 778 102Z"  horiz-adv-x="860" vert-adv-y="1000"  />

      
      <glyph glyph-name="uni0437" unicode="&#x0437;" d="M326 232Q355 222 376.50 194.50Q398 167 398 122Q398 63 345 26.50Q292-10 195-10Q123-10 82 20Q41 50 30 97L91 114Q101 82 125 70Q149 58 197 58Q243 58 280.50 74Q318 90 318 122Q318 164 291 178Q264 192 210 192L130 192L130 255L222 255Q262 255 283 272.50Q304 290 304 320Q304 382 195 381Q185 381 180.50 381Q176 381 164 380Q152 379 145.50 377.50Q139 376 129.50 372.50Q120 369 115 364Q110 359 106 351.50Q102 344 102.50 333.50Q103 323 108 310L50 298Q26 372 68 408.50Q110 445 207 445Q230 445 256 439.50Q282 434 311 422.50Q340 411 358.50 386Q377 361 377 328Q377 296 360.50 270.50Q344 245 326 232Z"  horiz-adv-x="418" vert-adv-y="1000"  />

      
      <glyph glyph-name="uni0438" unicode="&#x0438;" d="M539 69L539 0L383 0L383 301L176 0L94 0L94 364L20 364L20 434L176 434L176 132L383 434L465 434L465 69L539 69Z"  horiz-adv-x="589" vert-adv-y="1000"  />

      
      <glyph glyph-name="uni0439" unicode="&#x0439;" d="M279 577Q323 577 350 598Q377 619 380 654L438 654Q438 598 392 558.50Q346 519 279 519Q212 519 166 558.50Q120 598 120 654L179 654Q182 620 209 598.50Q236 577 279 577M539 69L539 0L383 0L383 301L176 0L94 0L94 364L20 364L20 434L176 434L176 132L383 434L465 434L465 69L539 69Z"  horiz-adv-x="589" vert-adv-y="1000"  />

      
      <glyph glyph-name="uni043A" unicode="&#x043A;" d="M508 102L577 87Q577 83 576 76.50Q575 70 568 53.50Q561 37 550.50 24Q540 11 518 0.50Q496-10 467-10Q434-10 411.50 16Q389 42 378.50 74.50Q368 107 351.50 142.50Q335 178 315 191Q294 204 274 206L206 138L206 69L280 69L280 0L50 0L50 69L124 69L124 365L50 365L50 434L206 434L206 241L330 365L280 365L280 434L509 434L509 365L431 365L334 268Q379 254 401 217Q417 189 429 150Q441 111 449 88Q457 65 469 62Q489 58 497.50 71Q506 84 508 102Z"  horiz-adv-x="597" vert-adv-y="1000"  />

      
      <glyph glyph-name="uni043B" unicode="&#x043B;" d="M470 69L543 69L543 0L388 0L388 365L252 365Q246 275 242 203Q239 168 237 148.50Q235 129 227 94Q219 59 207.50 40Q196 21 173.50 5.50Q151-10 120-10Q91-10 70.50 0Q50 10 41 24.50Q32 39 27 53Q22 67 22 77L21 87L86 99Q86 95 87 89Q88 83 95 72.50Q102 62 114 62Q122 62 128.50 64.50Q135 67 140 74Q145 81 148.50 87.50Q152 94 155 106.50Q158 119 159.50 128.50Q161 138 162.50 155Q164 172 165 183Q166 194 167.50 215Q169 236 170 248Q171 266 177 365L102 365L102 434L470 434L470 69Z"  horiz-adv-x="593" vert-adv-y="1000"  />

      
      <glyph glyph-name="uni043C" unicode="&#x043C;" d="M703 365L629 365L629 70L703 70L703 0L474 0L474 70L547 70L547 308L400 127L353 127L205 308L205 70L279 70L279 0L50 0L50 70L123 70L123 365L50 365L50 434L205 434L376 224L547 434L703 434L703 365Z"  horiz-adv-x="753" vert-adv-y="1000"  />

      
      <glyph glyph-name="uni043D" unicode="&#x043D;" d="M568 69L568 0L413 0L413 189L205 189L205 69L279 69L279 0L50 0L50 69L123 69L123 365L50 365L50 434L205 434L205 259L413 259L413 365L339 365L339 434L568 434L568 365L494 365L494 69L568 69Z"  horiz-adv-x="618" vert-adv-y="1000"  />

      
      <glyph glyph-name="uni043E" unicode="&#x043E;" d="M248 445Q351 445 413 382Q475 319 475 217Q475 116 413 53Q351-10 248-10Q146-10 83 53Q20 116 20 217Q20 322 81.50 383.50Q143 445 248 445M248 62Q313 62 354.50 105.50Q396 149 396 217Q396 286 355.50 329Q315 372 248 372Q182 372 140.50 329Q99 286 99 217Q99 149 140.50 105.50Q182 62 248 62Z"  horiz-adv-x="515" vert-adv-y="1000"  />

      
      <glyph glyph-name="uni043F" unicode="&#x043F;" d="M568 69L568 0L413 0L413 365L206 365L206 69L279 69L279 0L50 0L50 69L124 69L124 365L50 365L50 434L568 434L568 365L495 365L495 69L568 69Z"  horiz-adv-x="618" vert-adv-y="1000"  />

      
      <glyph glyph-name="uni0440" unicode="&#x0440;" d="M314 445Q416 445 471 383.50Q526 322 526 218Q526 116 465 53Q404-10 301-10Q225-10 185 37L185-165L259-165L259-234L30-234L30-165L103-165L103 319Q103 340 102 348.50Q101 357 94 364.50Q87 372 72 371.50Q57 371 30 365L30 434Q66 445 101 445Q179 445 185 364Q192 387 228 416Q264 445 314 445M301 63Q365 63 406 106.50Q447 150 447 218Q447 287 408 329.50Q369 372 303 372Q213 372 185 271L185 124Q199 63 301 63Z"  horiz-adv-x="566" vert-adv-y="1000"  />

      
      <glyph glyph-name="uni0441" unicode="&#x0441;" d="M249 63Q340 63 362 128L431 107Q417 55 371.50 22.50Q326-10 249-10Q140-10 80 54.50Q20 119 20 218Q20 317 77 381Q134 445 240 445Q327 445 383 403.50Q439 362 412 280L341 295Q346 313 345.50 326Q345 339 332.50 347.50Q320 356 309 361Q298 366 281.50 368.50Q265 371 256.50 371.50Q248 372 240 372Q185 372 142 330.50Q99 289 99 218Q99 145 141.50 104Q184 63 249 63Z"  horiz-adv-x="461" vert-adv-y="1000"  />

      
      <glyph glyph-name="uni0442" unicode="&#x0442;" d="M20 434L460 434L460 278L391 278L391 365L281 365L281 69L355 69L355 0L125 0L125 69L199 69L199 365L89 365L89 278L20 278L20 434Z"  horiz-adv-x="510" vert-adv-y="1000"  />

      
      <glyph glyph-name="uni0443" unicode="&#x0443;" d="M584 434L584 365L520 365Q507 330 467 230Q427 130 407 78Q341-88 311-137Q256-229 177-235Q171-235 165-235Q131-235 106.50-223.50Q82-212 72-195.50Q62-179 56.50-162.50Q51-146 51-134L51-123L121-109Q123-111 120.50-124Q118-137 130.50-152.50Q143-168 168-168Q222-168 279-34L111 365L10 365L10 434L166 434L167 434L319 68Q398 279 431 365L355 365L355 434L584 434Z"  horiz-adv-x="614" vert-adv-y="1000"  />

      
      <glyph glyph-name="uni0444" unicode="&#x0444;" d="M518.50 371.50Q518.50 371.50 548.75 341.25Q579 311 579 216Q579 121 519 60.50Q459 0 346-10L346-165L420-165L420-234L190-234L190-165L264-165L264-10Q152 0 91 60.50Q30 121 30 216Q30 314 90 373Q150 432 264 442L264 540Q264 561 263 569Q262 577 255 585Q248 593 233 592Q218 591 190 585L190 655Q227 666 261 666Q346 666 346 572L346 442Q458 432 518.50 371.50M463.50 112.50Q463.50 112.50 483.25 132.75Q503 153 503 216Q503 279 463 319.50Q423 360 346 369L346 63Q424 72 463.50 112.50M107 216Q107 154 147.50 113Q188 72 264 63L264 369Q107 352 107 216Z"  horiz-adv-x="609" vert-adv-y="1000"  />

      
      <glyph glyph-name="uni0445" unicode="&#x0445;" d="M477 70L572 70L572 0L342 0L342 70L381 70L310 158L239 70L279 70L279 0L50 0L50 70L143 70L262 217L143 365L58 365L58 434L288 434L288 365L239 365L310 277L381 365L333 365L333 434L562 434L562 365L477 365L358 217L477 70Z"  horiz-adv-x="622" vert-adv-y="1000"  />

      
      <glyph glyph-name="uni0446" unicode="&#x0446;" d="M495 69L568 69L568-104L499-104L499 0L50 0L50 69L124 69L124 365L50 365L50 434L205 434L205 69L413 69L413 365L339 365L339 434L568 434L568 365L495 365L495 69Z"  horiz-adv-x="618" vert-adv-y="1000"  />

      
      <glyph glyph-name="uni0447" unicode="&#x0447;" d="M522 365L448 365L448 69L522 69L522 0L292 0L292 69L366 69L366 156Q324 130 275 130Q104 130 104 300L104 365L30 365L30 434L186 434L186 342Q186 261 195 238Q213 195 281 195Q329 195 366 218L366 365L292 365L292 434L522 434L522 365Z"  horiz-adv-x="572" vert-adv-y="1000"  />

      
      <glyph glyph-name="uni0448" unicode="&#x0448;" d="M697 69L771 69L771 0L50 0L50 69L123 69L123 365L50 365L50 434L205 434L205 69L369 69L369 365L295 365L295 434L451 434L451 69L615 69L615 365L541 365L541 434L771 434L771 365L697 365L697 69Z"  horiz-adv-x="821" vert-adv-y="1000"  />

      
      <glyph glyph-name="uni0449" unicode="&#x0449;" d="M697 69L771 69L771-104L702-104L702 0L50 0L50 69L124 69L124 365L50 365L50 434L206 434L206 69L370 69L370 365L296 365L296 434L451 434L451 69L615 69L615 365L542 365L542 434L771 434L771 365L697 365L697 69Z"  horiz-adv-x="821" vert-adv-y="1000"  />

      
      <glyph glyph-name="uni044A" unicode="&#x044A;" d="M331 279Q420 279 468.50 244.50Q517 210 517 140Q517 76 469.50 38Q422 0 332 0L89 0L89 69L163 69L163 365L89 365L89 279L20 279L20 434L318 434L318 365L245 365L245 279L331 279M330 69Q380 69 409 89Q438 109 438 142Q438 209 332 209L245 209L245 69L330 69Z"  horiz-adv-x="547" vert-adv-y="1000"  />

      
      <glyph glyph-name="uni044B" unicode="&#x044B;" d="M292 279Q381 279 429.50 244.50Q478 210 478 141Q478 77 430.50 38.50Q383 0 293 0L50 0L50 69L124 69L124 365L50 365L50 434L279 434L279 365L205 365L205 279L292 279M291 69Q340 69 369 89.50Q398 110 398 143Q398 210 292 210L205 210L205 69L291 69M644 69L718 69L718 0L562 0L562 365L489 365L489 434L718 434L718 365L644 365L644 69Z"  horiz-adv-x="768" vert-adv-y="1000"  />

      
      <glyph glyph-name="uni044C" unicode="&#x044C;" d="M293 279Q382 279 430.50 244.50Q479 210 479 140Q479 76 431.50 38Q384 0 294 0L50 0L50 69L124 69L124 365L50 365L50 434L280 434L280 365L206 365L206 279L293 279M292 69Q342 69 370.50 89Q399 109 399 142Q399 209 293 209L206 209L206 69L292 69Z"  horiz-adv-x="499" vert-adv-y="1000"  />

      
      <glyph glyph-name="uni044D" unicode="&#x044D;" d="M220 445Q327 445 384 381Q441 317 441 217Q441 119 380.50 54.50Q320-10 212-10Q135-10 89 23Q43 56 30 107L98 128Q120 62 212 62Q269 62 310 95.50Q351 129 360 189L148 189L148 259L357 259Q345 312 305.50 342Q266 372 220 372Q207 372 191.50 370Q176 368 152.50 361.50Q129 355 119.50 337.50Q110 320 120 295L49 280Q22 362 78 403.50Q134 445 220 445Z"  horiz-adv-x="461" vert-adv-y="1000"  />

      
      <glyph glyph-name="uni044E" unicode="&#x044E;" d="M517 445Q621 445 683 382.50Q745 320 745 218Q745 116 683 53Q621-10 517-10Q423-10 361.50 45Q300 100 291 190L205 190L205 69L279 69L279 0L50 0L50 69L123 69L123 365L50 365L50 434L205 434L205 259L293 259Q304 346 364 395.50Q424 445 517 445M517 63Q582 63 624 106.50Q666 150 666 218Q666 287 624.50 330Q583 373 517 373Q451 373 410 329.50Q369 286 369 218Q369 150 410 106.50Q451 63 517 63Z"  horiz-adv-x="765" vert-adv-y="1000"  />

      
      <glyph glyph-name="uni044F" unicode="&#x044F;" d="M503 365L429 365L429 69L503 69L503 0L273 0L273 69L347 69L347 155L260 155L244 155Q235 139 217.50 89.50Q200 40 179 15Q158-10 123-10Q94-10 73 0Q52 10 42.50 24.50Q33 39 27.50 53Q22 67 22 77L21 87L82 102Q84 84 92.50 71Q101 58 121 63Q131 65 137.50 77.50Q144 90 153 120.50Q162 151 169 167Q74 197 74 293Q74 357 121.50 395.50Q169 434 259 434L503 434L503 365M260 224L347 224L347 365L261 365Q212 365 183 344.50Q154 324 154 291Q154 224 260 224Z"  horiz-adv-x="553" vert-adv-y="1000"  />

      
      <glyph glyph-name="uni0451" unicode="&#x0451;" d="M192 565Q192 546 178.50 532.50Q165 519 146 519Q127 519 114 532.50Q101 546 101 565Q101 583 114 596.50Q127 610 146 610Q165 610 178.50 596.50Q192 583 192 565M357 565Q357 546 343.50 532.50Q330 519 312 519Q293 519 279.50 532.50Q266 546 266 565Q266 583 279.50 596.50Q293 610 312 610Q330 610 343.50 596.50Q357 583 357 565M230 445Q316 445 359.50 386Q403 327 403 218Q403 199 402 190L100 190Q108 131 140 95.50Q172 60 224 60Q274 60 303 75.50Q332 91 357 122L409 85Q374 34 331.50 12Q289-10 224-10Q131-10 75.50 53Q20 116 20 218Q20 323 77 384Q134 445 230 445M230 376Q178 376 144 345.50Q110 315 99 259L321 259Q317 376 230 376Z"  horiz-adv-x="439" vert-adv-y="1000"  />

      
      <glyph glyph-name="uni2018" unicode="&#x2018;" d="M51 671Q48 706 68 749Q88 792 122 823L160 796Q131 762 125 729Q145 724 157.50 708Q170 692 170 671Q170 647 152.50 629.50Q135 612 111 612Q86 612 69.50 628.50Q53 645 51 671Z"  horiz-adv-x="220" vert-adv-y="1000"  />

      
      <glyph glyph-name="uni2019" unicode="&#x2019;" d="M169 764Q172 729 152 686Q132 643 98 612L60 639Q89 673 95 706Q75 711 62.50 727Q50 743 50 764Q50 788 67.50 805.50Q85 823 109 823Q134 823 150.50 806.50Q167 790 169 764Z"  horiz-adv-x="220" vert-adv-y="1000"  />

      
      <glyph glyph-name="uni20AC" unicode="&#x20AC;" d="M684 175L756 150Q730 80 666 35Q602-10 490-10Q352-10 263 57.50Q174 125 144 238L20 238L47 307L132 307Q131 320 131 347L131 364L20 364L47 433L138 433Q161 555 247.50 629.50Q334 704 477 704Q517 704 554.50 696.50Q592 689 630 672Q668 655 691 627Q714 599 723 557Q732 515 712 459L638 478Q645 506 647.50 527Q650 548 639.50 563.50Q629 579 618.50 590Q608 601 588.50 608.50Q569 616 555 620Q541 624 522.50 626Q504 628 495 628.50Q486 629 477 629Q379 629 313 575.50Q247 522 224 433L570 433L543 364L214 364L214 347Q214 320 216 307L527 307L500 238L232 238Q262 159 330 112Q398 65 490 65Q640 65 684 175Z"  horiz-adv-x="786" vert-adv-y="1000"  />

      
      <glyph glyph-name="uni2116" unicode="&#x2116;" d="M1031 710Q1111 710 1159 662.50Q1207 615 1207 537Q1207 461 1159 413Q1111 365 1031 365Q952 365 903.50 413Q855 461 855 537Q855 617 902.50 663.50Q950 710 1031 710M1031 435Q1075 435 1104 463.50Q1133 492 1133 537Q1133 583 1105 611.50Q1077 640 1031 640Q985 640 957 611.50Q929 583 929 537Q929 492 957 463.50Q985 435 1031 435M1201 230L1201 299L860 299L860 230L1201 230M819 700L819 631L722 631L722 0L640 0L228 571L228 69L325 69L325 0L50 0L50 69L146 69L146 631L50 631L50 700L228 700L640 130L640 631L544 631L544 700L819 700Z"  horiz-adv-x="1237" vert-adv-y="1000"  />

      

  </font>
</defs>
</svg>
