<svg width="64" height="64" viewBox="0 0 64 64" fill="none" xmlns="http://www.w3.org/2000/svg">
<path d="M22 8C22.2614 7.99684 22.5196 7.94248 22.76 7.84C23.0022 7.73837 23.2254 7.59635 23.42 7.42C23.5964 7.22536 23.7384 7.00219 23.84 6.76C23.9425 6.51956 23.9969 6.26135 24 6C23.9927 5.47047 23.7855 4.96327 23.42 4.58C23.2341 4.39254 23.0129 4.24375 22.7692 4.14222C22.5255 4.04068 22.2641 3.9884 22 3.9884C21.736 3.9884 21.4746 4.04068 21.2309 4.14222C20.9872 4.24375 20.766 4.39254 20.58 4.58C20.3947 4.76688 20.248 4.98851 20.1485 5.23219C20.049 5.47586 19.9985 5.73679 20 6C20 6.53043 20.2107 7.03914 20.5858 7.41421C20.9609 7.78929 21.4696 8 22 8ZM30 8H38C38.5305 8 39.0392 7.78929 39.4142 7.41421C39.7893 7.03914 40 6.53043 40 6C40 5.46957 39.7893 4.96086 39.4142 4.58579C39.0392 4.21071 38.5305 4 38 4H30C29.4696 4 28.9609 4.21071 28.5858 4.58579C28.2107 4.96086 28 5.46957 28 6C28 6.53043 28.2107 7.03914 28.5858 7.41421C28.9609 7.78929 29.4696 8 30 8Z" fill="#FFF1FE"/>
<path d="M60 2H58C57.7368 1.99848 57.4759 2.04893 57.2322 2.14846C56.9886 2.24799 56.7669 2.39464 56.58 2.58L52 7.2V6C52 5.46957 51.7893 4.96086 51.4143 4.58579C51.0392 4.21072 50.5305 4 50 4H46C45.4696 4 44.9609 4.21072 44.5858 4.58579C44.2108 4.96086 44 5.46957 44 6C44 6.53044 44.2108 7.03914 44.5858 7.41422C44.9609 7.78929 45.4696 8 46 8H48C47.5 24.98 40.66 38 32 38C23.02 38 16 24 16 6C16 5.46957 15.7893 4.96086 15.4142 4.58579C15.0392 4.21072 14.5305 4 14 4C13.4696 4 12.9609 4.21072 12.5858 4.58579C12.2107 4.96086 12 5.46957 12 6V7.2L7.42003 2.58C7.23315 2.39464 7.01152 2.24799 6.76785 2.14846C6.52417 2.04893 6.26325 1.99848 6.00003 2H4.00003C3.4696 2 2.96089 2.21072 2.58582 2.58579C2.21075 2.96086 2.00003 3.46957 2.00003 4V20C1.99851 20.2632 2.04896 20.5241 2.14849 20.7678C2.24802 21.0115 2.39467 21.2331 2.58003 21.42L8.58003 27.42C8.76691 27.6054 8.98855 27.752 9.23222 27.8515C9.4759 27.9511 9.73682 28.0015 10 28H16C18.9 34.94 23.18 39.78 28.26 41.4L21.06 50H14C13.4696 50 12.9609 50.2107 12.5858 50.5858C12.2107 50.9609 12 51.4696 12 52V60C12 60.5304 12.2107 61.0391 12.5858 61.4142C12.9609 61.7893 13.4696 62 14 62H50C50.5305 62 51.0392 61.7893 51.4143 61.4142C51.7893 61.0391 52 60.5304 52 60V52C52 51.4696 51.7893 50.9609 51.4143 50.5858C51.0392 50.2107 50.5305 50 50 50H42.94L35.76 41.4C40.84 39.8 45.12 34.96 48.02 28H54.02C54.2833 28.0015 54.5442 27.9511 54.7879 27.8515C55.0315 27.752 55.2532 27.6054 55.44 27.42L61.44 21.42C61.8071 21.0393 62.0084 20.5288 62 20V4C62 3.46957 61.7893 2.96086 61.4143 2.58579C61.0392 2.21072 60.5305 2 60 2ZM10.82 24L6.00003 19.18V6.82L12.38 13.2C12.7423 16.8608 13.459 20.4777 14.52 24H10.82ZM42 54H48V58H16V54H22C22.2939 54.0005 22.5842 53.9362 22.8503 53.8118C23.1165 53.6873 23.352 53.5058 23.54 53.28L32 43.12L40.46 53.28C40.6481 53.5058 40.8836 53.6873 41.1497 53.8118C41.4159 53.9362 41.7062 54.0005 42 54ZM58 19.18L53.18 24H49.48C50.5478 20.4784 51.2712 16.8614 51.64 13.2L58 6.82V19.18Z" fill="#FFF1FE"/>
<path d="M24 14C23.4696 14 22.9609 14.2107 22.5858 14.5858C22.2107 14.9609 22 15.4696 22 16C22 16.5304 22.2107 17.0391 22.5858 17.4142C22.9609 17.7893 23.4696 18 24 18H40C40.5304 18 41.0391 17.7893 41.4142 17.4142C41.7893 17.0391 42 16.5304 42 16C42 15.4696 41.7893 14.9609 41.4142 14.5858C41.0391 14.2107 40.5304 14 40 14H24ZM28 24C27.4696 24 26.9609 24.2107 26.5858 24.5858C26.2107 24.9609 26 25.4696 26 26C26 26.5304 26.2107 27.0391 26.5858 27.4142C26.9609 27.7893 27.4696 28 28 28H36C36.5304 28 37.0391 27.7893 37.4142 27.4142C37.7893 27.0391 38 26.5304 38 26C38 25.4696 37.7893 24.9609 37.4142 24.5858C37.0391 24.2107 36.5304 24 36 24H28Z" fill="#FFF1FE"/>
</svg>
