<svg width="64" height="64" viewBox="0 0 64 64" fill="none" xmlns="http://www.w3.org/2000/svg">
<path d="M49.4199 46.58C49.0373 46.2523 48.5452 46.0811 48.0418 46.1006C47.5385 46.12 47.061 46.3287 46.7048 46.6849C46.3486 47.0411 46.14 47.5185 46.1205 48.0219C46.1011 48.5252 46.2723 49.0174 46.5999 49.4L52.5999 55.4C52.9826 55.7277 53.4747 55.8989 53.9781 55.8794C54.4814 55.86 54.9589 55.6513 55.3151 55.2951C55.6713 54.9389 55.8799 54.4615 55.8994 53.9581C55.9188 53.4548 55.7476 52.9626 55.4199 52.58L49.4199 46.58ZM34.8399 32L42.8399 24L51.4399 32.6C51.8147 32.9725 52.3216 33.1816 52.8499 33.1816C53.3783 33.1816 53.8852 32.9725 54.2599 32.6L61.4 25.46C61.7725 25.0853 61.9815 24.5784 61.9815 24.05C61.9815 23.5216 61.7725 23.0147 61.4 22.64L56.54 17.72C56.2855 17.4673 55.9677 17.2877 55.6199 17.2L52.9 16.5L52.2 13.76C52.1122 13.4123 51.9326 13.0945 51.68 12.84L44.3799 5.56C37.4599 -1.38 23.8399 4 23.2599 4.14C22.8266 4.31126 22.4667 4.62843 22.2423 5.03676C22.0179 5.4451 21.9431 5.91897 22.0308 6.37657C22.1185 6.83417 22.3633 7.24678 22.7228 7.54318C23.0823 7.83957 23.534 8.00114 23.9999 8C25.9999 8 30.8999 11.9 34.4199 15.52L39.9999 21.16L31.9999 29.16L28.8199 26L31.3999 23.42C31.7724 23.0453 31.9815 22.5384 31.9815 22.01C31.9815 21.4816 31.7724 20.9747 31.3999 20.6L13.3999 2.6C13.0252 2.2275 12.5183 2.01842 11.9899 2.01842C11.4616 2.01842 10.9547 2.2275 10.5799 2.6L2.57995 10.6C2.20744 10.9747 1.99836 11.4816 1.99836 12.01C1.99836 12.5384 2.20744 13.0453 2.57995 13.42L20.5799 31.42C20.9547 31.7925 21.4616 32.0016 21.9899 32.0016C22.5183 32.0016 23.0252 31.7925 23.3999 31.42L25.9999 28.82L29.1799 32L2.57995 58.58C2.37058 58.7593 2.20054 58.9799 2.0805 59.2281C1.96045 59.4762 1.89299 59.7465 1.88235 60.0219C1.87171 60.2973 1.91812 60.572 2.01867 60.8286C2.11922 61.0853 2.27174 61.3184 2.46665 61.5133C2.66156 61.7082 2.89465 61.8607 3.1513 61.9613C3.40795 62.0618 3.68262 62.1082 3.95805 62.0976C4.23349 62.087 4.50376 62.0195 4.75189 61.8995C5.00002 61.7794 5.22065 61.6094 5.39995 61.4L31.9999 34.84L40.5799 43.42C40.9626 43.7477 41.4547 43.9189 41.9581 43.8994C42.4614 43.88 42.9389 43.6713 43.2951 43.3151C43.6513 42.9589 43.8599 42.4815 43.8794 41.9781C43.8988 41.4748 43.7276 40.9826 43.3999 40.6L34.8399 32ZM37.2799 12.72C35.058 10.3944 32.6204 8.28499 29.9999 6.42C34 5.68 38.8799 5.64 41.6399 8.42L48.5599 15.34L49.4199 18.68C49.509 19.027 49.6896 19.3437 49.9429 19.597C50.1963 19.8503 50.513 20.0309 50.86 20.12L54.2 20.98L57.18 24L52.86 28.32L37.2799 12.72ZM21.9999 27.18L6.81995 12L11.9999 6.82L27.1799 22L21.9999 27.18Z" fill="#FFF1FE"/>
<path d="M58 60C58 60.5304 58.2107 61.0391 58.5858 61.4142C58.9609 61.7893 59.4696 62 60 62C60.5304 62 61.0391 61.7893 61.4142 61.4142C61.7893 61.0391 62 60.5304 62 60C62 59.4696 61.7893 58.9609 61.4142 58.5858C61.0391 58.2107 60.5304 58 60 58C59.4696 58 58.9609 58.2107 58.5858 58.5858C58.2107 58.9609 58 59.4696 58 60Z" fill="#FFF1FE"/>
</svg>
