<svg width="114" height="111" viewBox="0 0 114 111" fill="none" xmlns="http://www.w3.org/2000/svg">
<path d="M56.9603 100.196C31.4866 100.196 10.7603 80.0159 10.7603 55.2114C10.7603 30.4069 31.4867 10.2272 56.9603 10.2272C68.3599 10.2272 79.3109 14.3053 87.7954 21.7099C88.8507 22.6313 88.9384 24.2115 87.9909 25.239C87.046 26.269 85.4243 26.3519 84.3665 25.4318C76.8269 18.8497 67.0941 15.2254 56.9603 15.2254C34.3165 15.2254 15.8936 33.1634 15.8936 55.2114C15.8936 77.2594 34.3164 95.1975 56.9603 95.1975C79.1329 95.1975 97.1597 78.3113 97.997 56.7552C98.0521 55.3762 99.2252 54.2768 100.659 54.3512C102.075 54.4037 103.18 55.5642 103.125 56.9431C102.183 81.1972 81.9052 100.196 56.9603 100.196Z" fill="#7017E2"/>
<path d="M60.2984 66.8374L60.6472 67.1771L60.996 66.8374L99.7185 29.134L106.262 35.5047L60.6472 79.9185L26.8769 47.0372L33.4199 40.6665L60.2984 66.8374Z" fill="#7017E2" stroke="#7017E2"/>
</svg>
