<svg width="64" height="64" viewBox="0 0 64 64" fill="none" xmlns="http://www.w3.org/2000/svg">
<path d="M26.7401 34.22C29.1333 34.22 31.4727 33.5103 33.4625 32.1808C35.4524 30.8512 37.0033 28.9614 37.9191 26.7505C38.8349 24.5395 39.0745 22.1066 38.6076 19.7594C38.1408 17.4122 36.9883 15.2562 35.2961 13.564C33.6039 11.8718 31.4479 10.7194 29.1007 10.2525C26.7536 9.78561 24.3207 10.0252 22.1097 10.9411C19.8987 11.8569 18.0089 13.4078 16.6794 15.3976C15.3498 17.3874 14.6401 19.7268 14.6401 22.12C14.6454 25.3275 15.9219 28.4021 18.19 30.6701C20.458 32.9382 23.5326 34.2147 26.7401 34.22ZM26.7401 14C28.3422 14 29.9082 14.4751 31.2403 15.3651C32.5723 16.2551 33.6105 17.5202 34.2236 19.0003C34.8366 20.4803 34.997 22.109 34.6845 23.6802C34.372 25.2515 33.6005 26.6948 32.4677 27.8276C31.3349 28.9604 29.8916 29.7318 28.3204 30.0444C26.7491 30.3569 25.1205 30.1965 23.6404 29.5834C22.1603 28.9703 20.8953 27.9322 20.0052 26.6001C19.1152 25.2681 18.6401 23.702 18.6401 22.1C18.6454 19.9534 19.5005 17.8962 21.0184 16.3783C22.5363 14.8604 24.5935 14.0053 26.7401 14ZM51.4201 58.58C51.2342 58.3925 51.013 58.2437 50.7693 58.1422C50.5256 58.0407 50.2642 57.9884 50.0001 57.9884C49.7361 57.9884 49.4747 58.0407 49.231 58.1422C48.9873 58.2437 48.7661 58.3925 48.5801 58.58C48.3981 58.7702 48.2553 58.9945 48.1601 59.24C48.0577 59.4804 48.0033 59.7386 48.0001 60C48.0001 60.5304 48.2109 61.0391 48.5859 61.4142C48.961 61.7893 49.4697 62 50.0001 62C50.5306 62 51.0393 61.7893 51.4144 61.4142C51.7894 61.0391 52.0001 60.5304 52.0001 60C51.997 59.7386 51.9426 59.4804 51.8401 59.24C51.745 58.9945 51.6022 58.7702 51.4201 58.58ZM42.0001 58H34.0001C33.4697 58 32.961 58.2107 32.5859 58.5858C32.2109 58.9609 32.0001 59.4696 32.0001 60C32.0001 60.5304 32.2109 61.0391 32.5859 61.4142C32.961 61.7893 33.4697 62 34.0001 62H42.0001C42.5306 62 43.0393 61.7893 43.4144 61.4142C43.7894 61.0391 44.0001 60.5304 44.0001 60C44.0001 59.4696 43.7894 58.9609 43.4144 58.5858C43.0393 58.2107 42.5306 58 42.0001 58Z" fill="#FFF1FE"/>
<path d="M48.56 53.86H48.7C48.8066 53.7962 48.9071 53.7225 49 53.64L49.24 53.44C49.3328 53.329 49.4133 53.2083 49.48 53.08C49.6317 52.8839 49.7221 52.6473 49.74 52.4C49.7508 52.2803 49.7508 52.1598 49.74 52.04C49.7534 51.907 49.7534 51.773 49.74 51.64C49.748 51.5402 49.748 51.4399 49.74 51.34C47.985 46.6607 44.8497 42.625 40.7495 39.7677C36.6492 36.9103 31.7776 35.3663 26.78 35.34C20.2494 35.4071 14.0035 38.023 9.37421 42.6298C4.74495 47.2367 2.09877 53.4698 2 60C2 60.5304 2.21071 61.0392 2.58579 61.4142C2.96086 61.7893 3.46957 62 4 62H26C26.5304 62 27.0391 61.7893 27.4142 61.4142C27.7893 61.0392 28 60.5304 28 60C28 59.4696 27.7893 58.9609 27.4142 58.5858C27.0391 58.2107 26.5304 58 26 58H6.16C6.69871 52.8975 9.09206 48.1703 12.8858 44.7158C16.6795 41.2613 21.6095 39.3199 26.74 39.26C30.9369 39.2841 35.0272 40.5847 38.4674 42.9889C41.9075 45.3931 44.5348 48.7871 46 52.72V52.88C46.2042 53.2764 46.5351 53.5932 46.94 53.78H47.04C47.2668 53.8803 47.512 53.9321 47.76 53.9321C48.008 53.9321 48.2532 53.8803 48.48 53.78L48.56 53.86ZM35.36 7.80001C36.0878 7.14711 36.9464 6.65685 37.8786 6.36188C38.8108 6.06691 39.7951 5.97403 40.766 6.0894C41.737 6.20478 42.6721 6.52578 43.5092 7.031C44.3463 7.53622 45.0661 8.21406 45.6206 9.01934C46.1752 9.82462 46.5517 10.7388 46.7251 11.7011C46.8985 12.6633 46.8648 13.6515 46.6263 14.5997C46.3878 15.5479 45.9499 16.4343 45.3419 17.2C44.7338 17.9657 43.9695 18.5929 43.1 19.04C42.8649 19.1582 42.6554 19.3215 42.4835 19.5207C42.3116 19.7198 42.1805 19.9509 42.0979 20.2007C42.0152 20.4505 41.9826 20.7141 42.0018 20.9765C42.0211 21.2389 42.0918 21.4949 42.21 21.73C42.3282 21.9651 42.4915 22.1746 42.6907 22.3465C42.8898 22.5184 43.1209 22.6495 43.3707 22.7321C43.6205 22.8148 43.8841 22.8474 44.1465 22.8282C44.4089 22.8089 44.6649 22.7382 44.9 22.62C46.2748 21.9117 47.4828 20.9185 48.4434 19.7066C49.4041 18.4947 50.0953 17.0919 50.4711 15.5917C50.8469 14.0916 50.8985 12.5286 50.6226 11.0069C50.3467 9.48523 49.7495 8.03986 48.871 6.76716C47.9924 5.49446 46.8526 4.42368 45.5276 3.62622C44.2026 2.82875 42.7228 2.32291 41.1868 2.14244C39.6509 1.96197 38.0942 2.111 36.6204 2.57961C35.1466 3.04822 33.7896 3.82563 32.64 4.86001C32.447 5.0386 32.291 5.25348 32.181 5.49235C32.071 5.73123 32.0091 5.98944 31.9989 6.25222C31.9887 6.51501 32.0303 6.77724 32.1214 7.02394C32.2126 7.27063 32.3514 7.49696 32.53 7.69001C32.7086 7.88305 32.9235 8.03903 33.1623 8.14903C33.4012 8.25903 33.6594 8.3209 33.9222 8.33112C34.185 8.34133 34.4472 8.29969 34.6939 8.20856C34.9406 8.11743 35.167 7.9786 35.36 7.80001ZM42.2 24.34C41.6696 24.287 41.1398 24.4468 40.7272 24.7844C40.3146 25.1219 40.053 25.6096 40 26.14C39.947 26.6704 40.1068 27.2002 40.4444 27.6128C40.7819 28.0254 41.2696 28.287 41.8 28.34C45.8721 28.8336 49.6611 30.678 52.5616 33.5784C55.462 36.4789 57.3064 40.2679 57.8 44.34H52C51.4696 44.34 50.9609 44.5507 50.5858 44.9258C50.2107 45.3009 50 45.8096 50 46.34C50 46.8704 50.2107 47.3792 50.5858 47.7542C50.9609 48.1293 51.4696 48.34 52 48.34H60C60.5304 48.34 61.0391 48.1293 61.4142 47.7542C61.7893 47.3792 62 46.8704 62 46.34C61.9268 40.8961 59.8786 35.6641 56.2364 31.6172C52.5943 27.5704 47.6062 24.9843 42.2 24.34Z" fill="#FFF1FE"/>
</svg>
