<svg width="120" height="120" viewBox="0 0 120 120" fill="none" xmlns="http://www.w3.org/2000/svg">
<path d="M89.5404 42.8284C92.5623 39.4647 94.4186 35.0337 94.4186 30.1665C94.4186 19.6973 85.902 11.1794 75.4315 11.1794C64.961 11.1794 56.4443 19.6973 56.4443 30.1665H61.7443C61.7443 22.619 67.8853 16.4793 75.4315 16.4793C82.9777 16.4793 89.1187 22.619 89.1187 30.1665C89.1187 37.714 82.9777 43.8538 75.4315 43.8538C73.0118 43.8538 70.6309 43.2133 68.5477 41.9996L65.8822 46.5801C68.7728 48.2635 72.075 49.1537 75.4315 49.1537C79.0684 49.1537 82.4575 48.1079 85.348 46.3275C85.6683 46.7988 102.27 52.7986 103.427 80.6014C103.487 82.026 104.659 83.1414 106.072 83.1414C106.11 83.1414 106.147 83.1401 106.186 83.1388C107.648 83.078 108.784 81.8436 108.722 80.3814C107.586 53.0377 93.8473 44.7599 89.5404 42.8284Z" fill="#561D9E"/>
<path d="M63.5116 60.7174C66.9415 56.7432 69.0317 51.5823 69.0317 45.9333C69.0317 33.4313 58.8588 23.2596 46.3568 23.2596C33.8548 23.2596 23.6845 33.4311 23.6845 45.9331C23.6845 51.5821 25.7738 56.7426 29.2029 60.7168C23.1835 64.3001 11.2368 74.9134 11.2368 102.759C11.2368 104.222 12.422 105.409 13.8868 105.409C15.3516 105.409 16.5369 104.222 16.5369 102.759C16.5369 74.1117 29.8439 66.1038 33.3643 64.4873C37.0477 67.0751 41.5231 68.608 46.3568 68.608C51.1903 68.608 55.6662 67.0751 59.3501 64.4873C62.8711 66.1052 76.1793 74.1123 76.1793 102.759C76.1793 104.222 77.3645 105.409 78.8293 105.409C80.294 105.409 81.4794 104.222 81.4794 102.759C81.4792 74.9143 69.5319 64.301 63.5116 60.7174ZM28.9844 45.9331C28.9844 36.3528 36.7764 28.5594 46.3568 28.5594C55.9371 28.5594 63.7317 36.3528 63.7317 45.9331C63.7317 55.5135 55.937 63.308 46.3568 63.308C36.7766 63.308 28.9844 55.5135 28.9844 45.9331Z" fill="#7017E2"/>
</svg>
