<svg width="68" height="70" viewBox="0 0 68 70" fill="none" xmlns="http://www.w3.org/2000/svg">
<g filter="url(#filter0_d_109_6)">
<path d="M34 30C36.7689 30 39.4757 29.1789 41.778 27.6406C44.0803 26.1022 45.8747 23.9157 46.9343 21.3576C47.9939 18.7994 48.2712 15.9845 47.731 13.2687C47.1908 10.553 45.8574 8.05845 43.8995 6.10051C41.9416 4.14258 39.447 2.80921 36.7313 2.26901C34.0155 1.72882 31.2006 2.00607 28.6424 3.06569C26.0843 4.12532 23.8978 5.91973 22.3594 8.22202C20.8211 10.5243 20 13.2311 20 16C20 19.713 21.475 23.274 24.1005 25.8995C26.726 28.525 30.287 30 34 30ZM34 6.00001C35.9778 6.00001 37.9112 6.5865 39.5557 7.68531C41.2002 8.78412 42.4819 10.3459 43.2388 12.1732C43.9957 14.0004 44.1937 16.0111 43.8079 17.9509C43.422 19.8907 42.4696 21.6726 41.0711 23.0711C39.6725 24.4696 37.8907 25.422 35.9509 25.8079C34.0111 26.1937 32.0004 25.9957 30.1732 25.2388C28.3459 24.4819 26.7841 23.2002 25.6853 21.5557C24.5865 19.9112 24 17.9778 24 16C24 13.3478 25.0536 10.8043 26.9289 8.92894C28.8043 7.05358 31.3478 6.00001 34 6.00001ZM63.84 59.24C63.7448 58.9945 63.6021 58.7702 63.42 58.58C63.2254 58.4037 63.0022 58.2616 62.76 58.16C62.3958 58.0069 61.9944 57.965 61.6064 58.0398C61.2184 58.1145 60.8612 58.3025 60.58 58.58C60.4033 58.7744 60.2613 58.9976 60.16 59.24C60.0473 59.4771 59.9925 59.7376 60 60C59.9968 60.26 60.0444 60.5182 60.14 60.76C60.2497 61.0025 60.3983 61.2255 60.58 61.42C60.8612 61.6975 61.2184 61.8855 61.6064 61.9603C61.9944 62.035 62.3958 61.9932 62.76 61.84C63.0022 61.7384 63.2254 61.5964 63.42 61.42C63.6975 61.1388 63.8855 60.7816 63.9603 60.3936C64.035 60.0057 63.9932 59.6042 63.84 59.24ZM54 58H44C43.4696 58 42.9609 58.2107 42.5858 58.5858C42.2107 58.9609 42 59.4696 42 60C42 60.5304 42.2107 61.0392 42.5858 61.4142C42.9609 61.7893 43.4696 62 44 62H54C54.5304 62 55.0391 61.7893 55.4142 61.4142C55.7893 61.0392 56 60.5304 56 60C56 59.4696 55.7893 58.9609 55.4142 58.5858C55.0391 58.2107 54.5304 58 54 58Z" fill="#FFF1FE"/>
<path d="M60.8396 53.88C61.0876 53.7869 61.3146 53.6455 61.5075 53.4639C61.7003 53.2824 61.8552 53.0644 61.9631 52.8225C62.0711 52.5806 62.1299 52.3197 62.1361 52.0549C62.1424 51.7901 62.096 51.5267 61.9996 51.28C59.5448 44.9274 55.0014 39.5991 49.1166 36.1711C43.2318 32.7431 36.3557 31.4195 29.6188 32.4178C22.8819 33.4161 16.6852 36.6769 12.0474 41.6642C7.40956 46.6515 4.60672 53.0684 4.09963 59.86C4.08039 60.1342 4.11787 60.4094 4.20973 60.6684C4.30159 60.9275 4.44585 61.1648 4.63352 61.3656C4.8212 61.5664 5.04824 61.7264 5.30049 61.8355C5.55274 61.9447 5.82478 62.0007 6.09963 62H35.9996C36.5301 62 37.0388 61.7893 37.4138 61.4142C37.7889 61.0391 37.9996 60.5304 37.9996 60C37.9996 59.4696 37.7889 58.9609 37.4138 58.5858C37.0388 58.2107 36.5301 58 35.9996 58H8.33963C9.21364 52.3268 11.9405 47.1024 16.0949 43.1413C20.2493 39.1803 25.5977 36.7054 31.3061 36.1026C37.0144 35.4998 42.7618 36.803 47.6519 39.8089C52.542 42.8148 56.2999 47.3545 58.3396 52.72C58.5281 53.197 58.8927 53.5835 59.3579 53.7993C59.8232 54.0152 60.3537 54.0441 60.8396 53.88Z" fill="#FFF1FE"/>
</g>
<defs>
<filter id="filter0_d_109_6" x="-2" y="0" width="72" height="72" filterUnits="userSpaceOnUse" color-interpolation-filters="sRGB">
<feFlood flood-opacity="0" result="BackgroundImageFix"/>
<feColorMatrix in="SourceAlpha" type="matrix" values="0 0 0 0 0 0 0 0 0 0 0 0 0 0 0 0 0 0 127 0" result="hardAlpha"/>
<feOffset dy="4"/>
<feGaussianBlur stdDeviation="2"/>
<feComposite in2="hardAlpha" operator="out"/>
<feColorMatrix type="matrix" values="0 0 0 0 0 0 0 0 0 0 0 0 0 0 0 0 0 0 0.25 0"/>
<feBlend mode="normal" in2="BackgroundImageFix" result="effect1_dropShadow_109_6"/>
<feBlend mode="normal" in="SourceGraphic" in2="effect1_dropShadow_109_6" result="shape"/>
</filter>
</defs>
</svg>
