<svg width="64" height="64" viewBox="0 0 64 64" fill="none" xmlns="http://www.w3.org/2000/svg">
<path d="M32 30C34.7689 30 37.4757 29.1789 39.778 27.6406C42.0803 26.1022 43.8747 23.9157 44.9343 21.3576C45.9939 18.7994 46.2712 15.9845 45.731 13.2687C45.1908 10.553 43.8574 8.05844 41.8995 6.10051C39.9416 4.14257 37.447 2.8092 34.7313 2.26901C32.0155 1.72881 29.2006 2.00606 26.6424 3.06569C24.0843 4.12531 21.8978 5.91973 20.3594 8.22202C18.8211 10.5243 18 13.2311 18 16C18 19.713 19.475 23.274 22.1005 25.8995C24.726 28.525 28.287 30 32 30ZM32 6C33.9778 6 35.9112 6.58649 37.5557 7.6853C39.2002 8.78412 40.4819 10.3459 41.2388 12.1732C41.9957 14.0004 42.1937 16.0111 41.8079 17.9509C41.422 19.8907 40.4696 21.6725 39.0711 23.0711C37.6725 24.4696 35.8907 25.422 33.9509 25.8079C32.0111 26.1937 30.0004 25.9957 28.1732 25.2388C26.3459 24.4819 24.7841 23.2002 23.6853 21.5557C22.5865 19.9112 22 17.9778 22 16C22 13.3478 23.0536 10.8043 24.9289 8.92893C26.8043 7.05357 29.3478 6 32 6ZM61.84 59.24C61.7448 58.9945 61.6021 58.7702 61.42 58.58C61.2254 58.4037 61.0022 58.2616 60.76 58.16C60.3958 58.0068 59.9944 57.965 59.6064 58.0398C59.2184 58.1145 58.8612 58.3025 58.58 58.58C58.4033 58.7744 58.2613 58.9976 58.16 59.24C58.0473 59.4771 57.9925 59.7376 58 60C57.9968 60.26 58.0444 60.5182 58.14 60.76C58.2497 61.0025 58.3983 61.2255 58.58 61.42C58.8612 61.6975 59.2184 61.8855 59.6064 61.9603C59.9944 62.035 60.3958 61.9932 60.76 61.84C61.0022 61.7384 61.2254 61.5964 61.42 61.42C61.6975 61.1388 61.8855 60.7816 61.9603 60.3936C62.035 60.0057 61.9932 59.6042 61.84 59.24ZM52 58H42C41.4696 58 40.9609 58.2107 40.5858 58.5858C40.2107 58.9609 40 59.4696 40 60C40 60.5304 40.2107 61.0392 40.5858 61.4142C40.9609 61.7893 41.4696 62 42 62H52C52.5304 62 53.0391 61.7893 53.4142 61.4142C53.7893 61.0392 54 60.5304 54 60C54 59.4696 53.7893 58.9609 53.4142 58.5858C53.0391 58.2107 52.5304 58 52 58Z" fill="#FFF1FE"/>
<path d="M58.8401 53.88C59.0881 53.7869 59.3151 53.6455 59.508 53.4639C59.7008 53.2824 59.8557 53.0644 59.9636 52.8225C60.0716 52.5806 60.1303 52.3197 60.1366 52.0549C60.1429 51.7901 60.0965 51.5267 60.0001 51.28C57.5452 44.9274 53.0019 39.5991 47.1171 36.1711C41.2323 32.7431 34.3562 31.4195 27.6193 32.4178C20.8824 33.4161 14.6857 36.6769 10.0479 41.6642C5.41005 46.6515 2.60721 53.0684 2.10012 59.86C2.08088 60.1342 2.11836 60.4094 2.21022 60.6684C2.30208 60.9275 2.44634 61.1648 2.63401 61.3656C2.82168 61.5664 3.04873 61.7264 3.30098 61.8355C3.55323 61.9447 3.82527 62.0007 4.10012 62H34.0001C34.5306 62 35.0393 61.7893 35.4143 61.4142C35.7894 61.0391 36.0001 60.5304 36.0001 60C36.0001 59.4696 35.7894 58.9609 35.4143 58.5858C35.0393 58.2107 34.5306 58 34.0001 58H6.34012C7.21413 52.3268 9.94096 47.1024 14.0954 43.1413C18.2498 39.1803 23.5982 36.7054 29.3065 36.1026C35.0149 35.4998 40.7623 36.803 45.6524 39.8089C50.5425 42.8148 54.3004 47.3545 56.3401 52.72C56.5286 53.1971 56.8931 53.5835 57.3584 53.7993C57.8237 54.0152 58.3542 54.0441 58.8401 53.88Z" fill="#FFF1FE"/>
</svg>
