<svg width="86" height="86" viewBox="0 0 86 86" fill="none" xmlns="http://www.w3.org/2000/svg">
<path d="M43 40.3125C46.7208 40.3125 50.358 39.2092 53.4517 37.142C56.5454 35.0749 58.9566 32.1368 60.3805 28.6992C61.8044 25.2617 62.1769 21.4791 61.451 17.8299C60.7251 14.1806 58.9334 10.8285 56.3024 8.19755C53.6715 5.56658 50.3194 3.77486 46.6701 3.04898C43.0209 2.32309 39.2383 2.69564 35.8008 4.11952C32.3632 5.54339 29.4251 7.95464 27.358 11.0483C25.2908 14.142 24.1875 17.7792 24.1875 21.5C24.1875 26.4894 26.1695 31.2744 29.6976 34.8024C33.2256 38.3305 38.0106 40.3125 43 40.3125ZM43 8.0625C45.6577 8.0625 48.2557 8.8506 50.4655 10.3271C52.6753 11.8037 54.3976 13.9023 55.4146 16.3577C56.4317 18.8131 56.6978 21.5149 56.1793 24.1215C55.6608 26.7281 54.381 29.1225 52.5017 31.0017C50.6225 32.881 48.2281 34.1608 45.6215 34.6793C43.0149 35.1978 40.3131 34.9317 37.8577 33.9146C35.4023 32.8976 33.3037 31.1753 31.8271 28.9655C30.3506 26.7557 29.5625 24.1577 29.5625 21.5C29.5625 17.9362 30.9782 14.5183 33.4983 11.9983C36.0183 9.47823 39.4362 8.0625 43 8.0625ZM83.0975 79.6038C82.9696 79.2739 82.7778 78.9725 82.5331 78.7169C82.2716 78.4799 81.9717 78.2891 81.6462 78.1525C81.1568 77.9467 80.6174 77.8905 80.0961 77.9909C79.5747 78.0914 79.0948 78.344 78.7169 78.7169C78.4795 78.9781 78.2886 79.2781 78.1525 79.6038C78.0011 79.9224 77.9274 80.2724 77.9375 80.625C77.9332 80.9744 77.9971 81.3213 78.1256 81.6463C78.273 81.9722 78.4727 82.2717 78.7169 82.5331C79.0948 82.906 79.5747 83.1587 80.0961 83.2591C80.6174 83.3595 81.1568 83.3033 81.6462 83.0975C81.9717 82.9609 82.2716 82.7701 82.5331 82.5331C82.906 82.1552 83.1586 81.6753 83.2591 81.1539C83.3595 80.6326 83.3033 80.0932 83.0975 79.6038ZM69.875 77.9375H56.4375C55.7247 77.9375 55.0412 78.2207 54.5371 78.7247C54.0331 79.2287 53.75 79.9122 53.75 80.625C53.75 81.3378 54.0331 82.0214 54.5371 82.5254C55.0412 83.0294 55.7247 83.3125 56.4375 83.3125H69.875C70.5878 83.3125 71.2713 83.0294 71.7754 82.5254C72.2794 82.0214 72.5625 81.3378 72.5625 80.625C72.5625 79.9122 72.2794 79.2287 71.7754 78.7247C71.2713 78.2207 70.5878 77.9375 69.875 77.9375Z" fill="#FFF1FE"/>
<path d="M79.0662 72.4013C79.3994 72.2762 79.7044 72.0861 79.9636 71.8422C80.2227 71.5982 80.4309 71.3053 80.5759 70.9802C80.7209 70.6552 80.7999 70.3046 80.8083 69.9488C80.8167 69.593 80.7544 69.239 80.6249 68.9075C77.3262 60.3711 71.2211 53.2112 63.3133 48.6049C55.4056 43.9985 46.1658 42.2199 37.1131 43.5614C28.0604 44.9029 19.7336 49.2846 13.5015 55.9863C7.2695 62.688 3.50318 71.3107 2.82178 80.4369C2.79592 80.8053 2.84629 81.1751 2.96972 81.5232C3.09316 81.8713 3.28701 82.1902 3.5392 82.46C3.79138 82.7299 4.09647 82.9448 4.43543 83.0915C4.77439 83.2382 5.13995 83.3134 5.50928 83.3125H45.6874C46.4002 83.3125 47.0838 83.0294 47.5878 82.5254C48.0918 82.0213 48.3749 81.3378 48.3749 80.625C48.3749 79.9122 48.0918 79.2287 47.5878 78.7246C47.0838 78.2206 46.4002 77.9375 45.6874 77.9375H8.51928C9.69373 70.3142 13.3579 63.2938 18.9404 57.9712C24.5229 52.6485 31.7098 49.3229 39.3804 48.5129C47.051 47.7029 54.7741 49.454 61.3452 53.4932C67.9162 57.5324 72.966 63.6326 75.7068 70.8425C75.96 71.4835 76.4499 72.0028 77.0751 72.2929C77.7003 72.583 78.4131 72.6218 79.0662 72.4013Z" fill="#FFF1FE"/>
</svg>
